<svg width="76" height="44" viewBox="0 0 76 44" fill="none" xmlns="http://www.w3.org/2000/svg">
<path d="M4.68379 40.9999L0.987793 32.5999H2.28379L5.67979 40.3519H4.93579L8.35579 32.5999H9.55579L5.87179 40.9999H4.68379Z" fill="black"/>
<path d="M13.9265 40.9999V39.6559L13.8665 39.4039V37.1119C13.8665 36.6239 13.7225 36.2479 13.4345 35.9839C13.1545 35.7119 12.7305 35.5759 12.1625 35.5759C11.7865 35.5759 11.4185 35.6399 11.0585 35.7679C10.6985 35.8879 10.3945 36.0519 10.1465 36.2599L9.66651 35.3959C9.99451 35.1319 10.3865 34.9319 10.8425 34.7959C11.3065 34.6519 11.7905 34.5799 12.2945 34.5799C13.1665 34.5799 13.8385 34.7919 14.3105 35.2159C14.7825 35.6399 15.0185 36.2879 15.0185 37.1599V40.9999H13.9265ZM11.8385 41.0719C11.3665 41.0719 10.9505 40.9919 10.5905 40.8319C10.2385 40.6719 9.96651 40.4519 9.77451 40.1719C9.58251 39.8839 9.48651 39.5599 9.48651 39.1999C9.48651 38.8559 9.56651 38.5439 9.72651 38.2639C9.89451 37.9839 10.1625 37.7599 10.5305 37.5919C10.9065 37.4239 11.4105 37.3399 12.0425 37.3399H14.0585V38.1679H12.0905C11.5145 38.1679 11.1265 38.2639 10.9265 38.4559C10.7265 38.6479 10.6265 38.8799 10.6265 39.1519C10.6265 39.4639 10.7505 39.7159 10.9985 39.9079C11.2465 40.0919 11.5905 40.1839 12.0305 40.1839C12.4625 40.1839 12.8385 40.0879 13.1585 39.8959C13.4865 39.7039 13.7225 39.4239 13.8665 39.0559L14.0945 39.8479C13.9425 40.2239 13.6745 40.5239 13.2905 40.7479C12.9065 40.9639 12.4225 41.0719 11.8385 41.0719Z" fill="black"/>
<path d="M20.5224 41.0719C19.9944 41.0719 19.5104 40.9519 19.0704 40.7119C18.6384 40.4639 18.2904 40.0999 18.0264 39.6199C17.7704 39.1399 17.6424 38.5399 17.6424 37.8199C17.6424 37.0999 17.7664 36.4999 18.0144 36.0199C18.2704 35.5399 18.6144 35.1799 19.0464 34.9399C19.4864 34.6999 19.9784 34.5799 20.5224 34.5799C21.1464 34.5799 21.6984 34.7159 22.1784 34.9879C22.6584 35.2599 23.0384 35.6399 23.3184 36.1279C23.5984 36.6079 23.7384 37.1719 23.7384 37.8199C23.7384 38.4679 23.5984 39.0359 23.3184 39.5239C23.0384 40.0119 22.6584 40.3919 22.1784 40.6639C21.6984 40.9359 21.1464 41.0719 20.5224 41.0719ZM17.1504 43.3279V34.6399H18.2544V36.3559L18.1824 37.8319L18.3024 39.3079V43.3279H17.1504ZM20.4264 40.0639C20.8344 40.0639 21.1984 39.9719 21.5184 39.7879C21.8464 39.6039 22.1024 39.3439 22.2864 39.0079C22.4784 38.6639 22.5744 38.2679 22.5744 37.8199C22.5744 37.3639 22.4784 36.9719 22.2864 36.6439C22.1024 36.3079 21.8464 36.0479 21.5184 35.8639C21.1984 35.6799 20.8344 35.5879 20.4264 35.5879C20.0264 35.5879 19.6624 35.6799 19.3344 35.8639C19.0144 36.0479 18.7584 36.3079 18.5664 36.6439C18.3824 36.9719 18.2904 37.3639 18.2904 37.8199C18.2904 38.2679 18.3824 38.6639 18.5664 39.0079C18.7584 39.3439 19.0144 39.6039 19.3344 39.7879C19.6624 39.9719 20.0264 40.0639 20.4264 40.0639Z" fill="black"/>
<path d="M28.1621 41.0719C27.4821 41.0719 26.8821 40.9319 26.3621 40.6519C25.8501 40.3719 25.4501 39.9879 25.1621 39.4999C24.8821 39.0119 24.7421 38.4519 24.7421 37.8199C24.7421 37.1879 24.8781 36.6279 25.1501 36.1399C25.4301 35.6519 25.8101 35.2719 26.2901 34.9999C26.7781 34.7199 27.3261 34.5799 27.9341 34.5799C28.5501 34.5799 29.0941 34.7159 29.5661 34.9879C30.0381 35.2599 30.4061 35.6439 30.6701 36.1399C30.9421 36.6279 31.0781 37.1999 31.0781 37.8559C31.0781 37.9039 31.0741 37.9599 31.0661 38.0239C31.0661 38.0879 31.0621 38.1479 31.0541 38.2039H25.6421V37.3759H30.4541L29.9861 37.6639C29.9941 37.2559 29.9101 36.8919 29.7341 36.5719C29.5581 36.2519 29.3141 36.0039 29.0021 35.8279C28.6981 35.6439 28.3421 35.5519 27.9341 35.5519C27.5341 35.5519 27.1781 35.6439 26.8661 35.8279C26.5541 36.0039 26.3101 36.2559 26.1341 36.5839C25.9581 36.9039 25.8701 37.2719 25.8701 37.6879V37.8799C25.8701 38.3039 25.9661 38.6839 26.1581 39.0199C26.3581 39.3479 26.6341 39.6039 26.9861 39.7879C27.3381 39.9719 27.7421 40.0639 28.1981 40.0639C28.5741 40.0639 28.9141 39.9999 29.2181 39.8719C29.5301 39.7439 29.8021 39.5519 30.0341 39.2959L30.6701 40.0399C30.3821 40.3759 30.0221 40.6319 29.5901 40.8079C29.1661 40.9839 28.6901 41.0719 28.1621 41.0719Z" fill="black"/>
<path d="M34.5017 41.0719C33.9737 41.0719 33.4697 40.9999 32.9897 40.8559C32.5177 40.7119 32.1457 40.5359 31.8737 40.3279L32.3537 39.4159C32.6257 39.5999 32.9617 39.7559 33.3617 39.8839C33.7617 40.0119 34.1697 40.0759 34.5857 40.0759C35.1217 40.0759 35.5057 39.9999 35.7377 39.8479C35.9777 39.6959 36.0977 39.4839 36.0977 39.2119C36.0977 39.0119 36.0257 38.8559 35.8817 38.7439C35.7377 38.6319 35.5457 38.5479 35.3057 38.4919C35.0737 38.4359 34.8137 38.3879 34.5257 38.3479C34.2377 38.2999 33.9497 38.2439 33.6617 38.1799C33.3737 38.1079 33.1097 38.0119 32.8697 37.8919C32.6297 37.7639 32.4377 37.5919 32.2937 37.3759C32.1497 37.1519 32.0777 36.8559 32.0777 36.4879C32.0777 36.1039 32.1857 35.7679 32.4017 35.4799C32.6177 35.1919 32.9217 34.9719 33.3137 34.8199C33.7137 34.6599 34.1857 34.5799 34.7297 34.5799C35.1457 34.5799 35.5657 34.6319 35.9897 34.7359C36.4217 34.8319 36.7737 34.9719 37.0457 35.1559L36.5537 36.0679C36.2657 35.8759 35.9657 35.7439 35.6537 35.6719C35.3417 35.5999 35.0297 35.5639 34.7177 35.5639C34.2137 35.5639 33.8377 35.6479 33.5897 35.8159C33.3417 35.9759 33.2177 36.1839 33.2177 36.4399C33.2177 36.6559 33.2897 36.8239 33.4337 36.9439C33.5857 37.0559 33.7777 37.1439 34.0097 37.2079C34.2497 37.2719 34.5137 37.3279 34.8017 37.3759C35.0897 37.4159 35.3777 37.4719 35.6657 37.5439C35.9537 37.6079 36.2137 37.6999 36.4457 37.8199C36.6857 37.9399 36.8777 38.1079 37.0217 38.3239C37.1737 38.5399 37.2497 38.8279 37.2497 39.1879C37.2497 39.5719 37.1377 39.9039 36.9137 40.1839C36.6897 40.4639 36.3737 40.6839 35.9657 40.8439C35.5577 40.9959 35.0697 41.0719 34.5017 41.0719Z" fill="black"/>
<path d="M41.0774 41.0959C40.5094 41.0959 40.0054 41.0039 39.5654 40.8199C39.1254 40.6359 38.7775 40.3799 38.5215 40.0519C38.2655 39.7239 38.1374 39.3439 38.1374 38.9119C38.1374 38.5359 38.2215 38.1919 38.3895 37.8799C38.5575 37.5679 38.8255 37.2679 39.1935 36.9799C39.5615 36.6839 40.0455 36.3799 40.6455 36.0679C41.1335 35.8119 41.5135 35.5879 41.7854 35.3959C42.0654 35.2039 42.2615 35.0239 42.3735 34.8559C42.4935 34.6799 42.5534 34.4919 42.5534 34.2919C42.5534 34.0199 42.4574 33.7999 42.2654 33.6319C42.0734 33.4559 41.7975 33.3679 41.4375 33.3679C41.0615 33.3679 40.7654 33.4639 40.5494 33.6559C40.3414 33.8399 40.2374 34.0839 40.2374 34.3879C40.2374 34.5399 40.2614 34.6879 40.3094 34.8319C40.3654 34.9679 40.4615 35.1239 40.5975 35.2999C40.7415 35.4679 40.9454 35.6839 41.2094 35.9479L45.6494 40.3639L45.0014 41.1319L40.2854 36.4399C40.0055 36.1599 39.7855 35.9119 39.6255 35.6959C39.4655 35.4719 39.3495 35.2559 39.2775 35.0479C39.2055 34.8399 39.1694 34.6279 39.1694 34.4119C39.1694 34.0359 39.2614 33.7079 39.4454 33.4279C39.6374 33.1399 39.9014 32.9199 40.2374 32.7679C40.5814 32.6079 40.9815 32.5279 41.4375 32.5279C41.8615 32.5279 42.2295 32.5999 42.5415 32.7439C42.8535 32.8799 43.0934 33.0799 43.2614 33.3439C43.4374 33.5999 43.5254 33.9119 43.5254 34.2799C43.5254 34.5999 43.4454 34.8959 43.2854 35.1679C43.1334 35.4399 42.8855 35.7039 42.5415 35.9599C42.1975 36.2159 41.7334 36.4919 41.1494 36.7879C40.6694 37.0359 40.2935 37.2679 40.0215 37.4839C39.7495 37.6919 39.5534 37.8999 39.4334 38.1079C39.3214 38.3159 39.2654 38.5439 39.2654 38.7919C39.2654 39.0559 39.3415 39.2919 39.4935 39.4999C39.6535 39.6999 39.8734 39.8559 40.1535 39.9679C40.4414 40.0799 40.7734 40.1359 41.1494 40.1359C41.6854 40.1359 42.1694 40.0199 42.6014 39.7879C43.0334 39.5559 43.3934 39.2079 43.6814 38.7439C43.9774 38.2799 44.1934 37.7039 44.3294 37.0159L45.2534 37.3159C45.0934 38.1239 44.8174 38.8079 44.4254 39.3679C44.0414 39.9279 43.5654 40.3559 42.9974 40.6519C42.4294 40.9479 41.7894 41.0959 41.0774 41.0959Z" fill="black"/>
<path d="M47.084 40.9999V32.5999H50.36C51.096 32.5999 51.724 32.7159 52.244 32.9479C52.764 33.1799 53.164 33.5159 53.444 33.9559C53.724 34.3959 53.864 34.9199 53.864 35.5279C53.864 36.1359 53.724 36.6599 53.444 37.0999C53.164 37.5319 52.764 37.8679 52.244 38.1079C51.724 38.3399 51.096 38.4559 50.36 38.4559H47.744L48.284 37.8919V40.9999H47.084ZM48.284 38.0119L47.744 37.4119H50.324C51.092 37.4119 51.672 37.2479 52.064 36.9199C52.464 36.5919 52.664 36.1279 52.664 35.5279C52.664 34.9279 52.464 34.4639 52.064 34.1359C51.672 33.8079 51.092 33.6439 50.324 33.6439H47.744L48.284 33.0439V38.0119Z" fill="black"/>
<path d="M58.1595 41.0719C57.5195 41.0719 56.9515 40.9319 56.4555 40.6519C55.9595 40.3719 55.5675 39.9879 55.2795 39.4999C54.9915 39.0039 54.8475 38.4439 54.8475 37.8199C54.8475 37.1879 54.9915 36.6279 55.2795 36.1399C55.5675 35.6519 55.9595 35.2719 56.4555 34.9999C56.9515 34.7199 57.5195 34.5799 58.1595 34.5799C58.7915 34.5799 59.3555 34.7199 59.8515 34.9999C60.3555 35.2719 60.7475 35.6519 61.0275 36.1399C61.3155 36.6199 61.4595 37.1799 61.4595 37.8199C61.4595 38.4519 61.3155 39.0119 61.0275 39.4999C60.7475 39.9879 60.3555 40.3719 59.8515 40.6519C59.3555 40.9319 58.7915 41.0719 58.1595 41.0719ZM58.1595 40.0639C58.5675 40.0639 58.9315 39.9719 59.2515 39.7879C59.5795 39.6039 59.8355 39.3439 60.0195 39.0079C60.2035 38.6639 60.2955 38.2679 60.2955 37.8199C60.2955 37.3639 60.2035 36.9719 60.0195 36.6439C59.8355 36.3079 59.5795 36.0479 59.2515 35.8639C58.9315 35.6799 58.5675 35.5879 58.1595 35.5879C57.7515 35.5879 57.3875 35.6799 57.0675 35.8639C56.7475 36.0479 56.4915 36.3079 56.2995 36.6439C56.1075 36.9719 56.0115 37.3639 56.0115 37.8199C56.0115 38.2679 56.1075 38.6639 56.2995 39.0079C56.4915 39.3439 56.7475 39.6039 57.0675 39.7879C57.3875 39.9719 57.7515 40.0639 58.1595 40.0639Z" fill="black"/>
<path d="M65.6807 41.0719C65.0647 41.0719 64.5127 40.9359 64.0247 40.6639C63.5447 40.3919 63.1647 40.0119 62.8847 39.5239C62.6047 39.0359 62.4647 38.4679 62.4647 37.8199C62.4647 37.1719 62.6047 36.6079 62.8847 36.1279C63.1647 35.6399 63.5447 35.2599 64.0247 34.9879C64.5127 34.7159 65.0647 34.5799 65.6807 34.5799C66.2167 34.5799 66.7007 34.6999 67.1327 34.9399C67.5647 35.1799 67.9087 35.5399 68.1647 36.0199C68.4287 36.4999 68.5607 37.0999 68.5607 37.8199C68.5607 38.5399 68.4327 39.1399 68.1767 39.6199C67.9287 40.0999 67.5887 40.4639 67.1567 40.7119C66.7247 40.9519 66.2327 41.0719 65.6807 41.0719ZM65.7767 40.0639C66.1767 40.0639 66.5367 39.9719 66.8567 39.7879C67.1847 39.6039 67.4407 39.3439 67.6247 39.0079C67.8167 38.6639 67.9127 38.2679 67.9127 37.8199C67.9127 37.3639 67.8167 36.9719 67.6247 36.6439C67.4407 36.3079 67.1847 36.0479 66.8567 35.8639C66.5367 35.6799 66.1767 35.5879 65.7767 35.5879C65.3687 35.5879 65.0047 35.6799 64.6847 35.8639C64.3647 36.0479 64.1087 36.3079 63.9167 36.6439C63.7247 36.9719 63.6287 37.3639 63.6287 37.8199C63.6287 38.2679 63.7247 38.6639 63.9167 39.0079C64.1087 39.3439 64.3647 39.6039 64.6847 39.7879C65.0047 39.9719 65.3687 40.0639 65.7767 40.0639ZM67.9487 40.9999V39.2839L68.0207 37.8079L67.9007 36.3319V32.0959H69.0527V40.9999H67.9487Z" fill="black"/>
<path d="M73.0564 41.0719C72.5284 41.0719 72.0244 40.9999 71.5444 40.8559C71.0724 40.7119 70.7004 40.5359 70.4284 40.3279L70.9084 39.4159C71.1804 39.5999 71.5164 39.7559 71.9164 39.8839C72.3164 40.0119 72.7244 40.0759 73.1404 40.0759C73.6764 40.0759 74.0604 39.9999 74.2924 39.8479C74.5324 39.6959 74.6524 39.4839 74.6524 39.2119C74.6524 39.0119 74.5804 38.8559 74.4364 38.7439C74.2924 38.6319 74.1004 38.5479 73.8604 38.4919C73.6284 38.4359 73.3684 38.3879 73.0804 38.3479C72.7924 38.2999 72.5044 38.2439 72.2164 38.1799C71.9284 38.1079 71.6644 38.0119 71.4244 37.8919C71.1844 37.7639 70.9924 37.5919 70.8484 37.3759C70.7044 37.1519 70.6324 36.8559 70.6324 36.4879C70.6324 36.1039 70.7404 35.7679 70.9564 35.4799C71.1724 35.1919 71.4764 34.9719 71.8684 34.8199C72.2684 34.6599 72.7404 34.5799 73.2844 34.5799C73.7004 34.5799 74.1204 34.6319 74.5444 34.7359C74.9764 34.8319 75.3284 34.9719 75.6004 35.1559L75.1084 36.0679C74.8204 35.8759 74.5204 35.7439 74.2084 35.6719C73.8964 35.5999 73.5844 35.5639 73.2724 35.5639C72.7684 35.5639 72.3924 35.6479 72.1444 35.8159C71.8964 35.9759 71.7724 36.1839 71.7724 36.4399C71.7724 36.6559 71.8444 36.8239 71.9884 36.9439C72.1404 37.0559 72.3324 37.1439 72.5644 37.2079C72.8044 37.2719 73.0684 37.3279 73.3564 37.3759C73.6444 37.4159 73.9324 37.4719 74.2204 37.5439C74.5084 37.6079 74.7684 37.6999 75.0004 37.8199C75.2404 37.9399 75.4324 38.1079 75.5764 38.3239C75.7284 38.5399 75.8044 38.8279 75.8044 39.1879C75.8044 39.5719 75.6924 39.9039 75.4684 40.1839C75.2444 40.4639 74.9284 40.6839 74.5204 40.8439C74.1124 40.9959 73.6244 41.0719 73.0564 41.0719Z" fill="black"/>
<path d="M15.6295 25L5 0.541127H8.90105L16.7747 20.0938L23.8611 0.541127H25.6505L16.2021 25H15.6295ZM34.9444 24.8918C33.2742 24.8918 31.6755 24.4469 30.1486 23.557C29.3612 23.1 28.717 22.4267 28.2159 21.5368C27.7387 20.6229 27.5001 19.5647 27.5001 18.3622C27.5001 16.7749 28.0966 15.392 29.2896 14.2136C30.5065 13.0111 32.3436 12.2054 34.8012 11.7965C33.8945 9.75226 33.4412 7.87636 33.4412 6.16883C33.4412 5.13468 33.7513 3.95623 34.3717 2.63348C34.7296 1.88793 35.338 1.26263 36.197 0.757577C37.0559 0.252527 37.9387 0 38.8454 0C39.752 0 40.7184 0.0962003 41.7444 0.288602C42.7703 0.480999 43.5457 0.69745 44.0707 0.937952L43.7128 3.21068C42.1857 2.05628 40.3008 1.47908 38.058 1.47908C36.9128 2.22463 36.3401 3.55941 36.3401 5.48341C36.3401 7.40738 36.9247 9.60796 38.0938 12.0851C39.2629 14.5623 40.8376 16.799 42.818 18.7951C43.6531 17.4242 44.512 15.3319 45.3949 12.518C44.7745 12.518 44.3331 12.506 44.0707 12.482V11.3636C46.4805 11.2915 48.5086 11.027 50.1549 10.57L49.5465 12.3737C49.117 12.4459 48.2938 12.506 47.077 12.5541C46.1226 15.4882 45.025 17.8812 43.7844 19.733C46.5044 22.114 49.2959 23.3045 52.1591 23.3045L50.6201 24.4228C47.8047 24.4228 45.0608 23.4488 42.3886 21.5007C40.3128 23.7615 37.8313 24.8918 34.9444 24.8918ZM35.9822 23.1962C38.058 23.1962 39.8713 22.3785 41.4222 20.7431C38.8692 18.6267 36.8292 16.0293 35.3022 12.9509C33.6797 13.4079 32.4868 14.1414 31.7233 15.1515C30.9836 16.1375 30.6138 17.2078 30.6138 18.3622C30.6138 20.0216 31.1149 21.2482 32.117 22.0418C33.1429 22.8114 34.4313 23.1962 35.9822 23.1962ZM73 6.74603C73 9.05484 72.153 10.8105 70.4589 12.013C68.7887 13.1915 66.5102 13.7807 63.6232 13.7807H60.5453V24.4228H57.0737V0.541127H64.7684C67.1782 0.541127 69.1466 1.09428 70.6737 2.20058C72.2245 3.30687 73 4.82203 73 6.74603ZM60.5453 12.7345H63.7305C64.8519 12.7345 65.8063 12.518 66.5937 12.0851C67.4049 11.6522 67.9895 11.0991 68.3474 10.4257C68.9916 9.22321 69.3137 8.05673 69.3137 6.92641C69.3137 6.37326 69.1705 5.71188 68.8842 4.94228C68.3116 3.35498 67.1305 2.32083 65.341 1.83983C63.6232 1.83983 62.0245 2.04425 60.5453 2.4531V12.7345Z" fill="#1F1F21"/>
</svg>
