<svg width="71" height="70" viewBox="0 0 71 70" fill="none" xmlns="http://www.w3.org/2000/svg">
<path fill-rule="evenodd" clip-rule="evenodd" d="M53.7384 21.9276L28.3947 47.7098L15.0166 34.1C14.6068 33.6834 13.9367 33.6765 13.5194 34.0869C13.1022 34.4967 13.0966 35.1675 13.5064 35.5841L27.6399 49.9624C27.6418 49.9643 27.6442 49.9655 27.6467 49.968C27.6486 49.9699 27.6505 49.973 27.6523 49.9749C27.681 50.0029 27.7127 50.0241 27.7426 50.0477C27.7663 50.0664 27.7881 50.0876 27.8124 50.1038C27.8498 50.1287 27.8896 50.1467 27.9289 50.166C27.9519 50.1773 27.9731 50.1916 27.9961 50.2009C28.041 50.219 28.0877 50.2302 28.1338 50.242C28.1537 50.247 28.1724 50.2557 28.1923 50.2595C28.2596 50.2725 28.3268 50.2788 28.3947 50.2788C28.4626 50.2788 28.5305 50.2725 28.5971 50.2595C28.617 50.2557 28.6357 50.247 28.6556 50.242C28.7024 50.2302 28.7484 50.219 28.7933 50.2009C28.817 50.1916 28.8381 50.1773 28.8605 50.166C28.8998 50.1467 28.9403 50.1287 28.977 50.1038C29.0019 50.0876 29.0231 50.0664 29.0468 50.0477C29.0773 50.0241 29.109 50.0029 29.1371 49.9749C29.1396 49.973 29.1408 49.9699 29.1427 49.968C29.1452 49.9655 29.1476 49.9643 29.1501 49.9624L55.248 23.4117C55.6584 22.9951 55.6528 22.325 55.2356 21.9146C54.8183 21.5041 54.1488 21.5104 53.7384 21.9276ZM35.0008 67.8825C16.869 67.8825 2.11766 53.1312 2.11766 35C2.11766 16.8688 16.869 2.11747 35.0008 2.11747C53.1326 2.11747 67.884 16.8688 67.884 35C67.884 53.1312 53.1326 67.8825 35.0008 67.8825ZM35.0006 0C15.7011 0 0 15.7011 0 35C0 54.2989 15.7011 70 35.0006 70C54.3002 70 70.0012 54.2989 70.0012 35C70.0012 15.7011 54.3002 0 35.0006 0Z" fill="#7878F5"/>
</svg>
