<svg width="56" height="56" viewBox="0 0 56 56" fill="none" xmlns="http://www.w3.org/2000/svg">
<g clip-path="url(#clip0_549_6221)">
<path d="M40.0969 20.2781C40.4041 20.5857 40.5767 21.0027 40.5767 21.4375C40.5767 21.8723 40.4041 22.2893 40.0969 22.5969L24.7844 37.9094C24.4768 38.2166 24.0598 38.3892 23.625 38.3892C23.1902 38.3892 22.7733 38.2166 22.4656 37.9094L15.9031 31.3469C15.6133 31.0359 15.4556 30.6245 15.4631 30.1995C15.4706 29.7744 15.6427 29.3689 15.9433 29.0683C16.2439 28.7677 16.6495 28.5956 17.0745 28.5881C17.4995 28.5806 17.9109 28.7383 18.2219 29.0281L23.625 34.4285L37.7781 20.2781C38.0858 19.9709 38.5027 19.7983 38.9375 19.7983C39.3723 19.7983 39.7893 19.9709 40.0969 20.2781ZM55.8906 28C55.8906 33.5162 54.2549 38.9086 51.1902 43.4952C48.1256 48.0818 43.7696 51.6566 38.6733 53.7676C33.5769 55.8786 27.9691 56.4309 22.5588 55.3547C17.1486 54.2785 12.1789 51.6222 8.27836 47.7216C4.37779 43.8211 1.72146 38.8514 0.645298 33.4412C-0.430868 28.0309 0.121459 22.4231 2.23243 17.3267C4.34341 12.2304 7.91822 7.87445 12.5048 4.80979C17.0914 1.74513 22.4838 0.109375 28 0.109375C35.3944 0.118059 42.4834 3.05932 47.7121 8.28794C52.9407 13.5166 55.882 20.6056 55.8906 28ZM52.6094 28C52.6094 23.1327 51.1661 18.3748 48.462 14.3278C45.7578 10.2808 41.9144 7.12653 37.4176 5.2639C32.9208 3.40128 27.9727 2.91393 23.199 3.86349C18.4252 4.81305 14.0402 7.15686 10.5986 10.5985C7.15687 14.0402 4.81306 18.4252 3.8635 23.1989C2.91394 27.9727 3.40129 32.9208 5.26391 37.4176C7.12654 41.9144 10.2808 45.7578 14.3278 48.4619C18.3748 51.1661 23.1327 52.6094 28 52.6094C34.5246 52.6021 40.7799 50.007 45.3935 45.3935C50.0071 40.7799 52.6021 34.5246 52.6094 28Z" fill="#7878F5"/>
</g>
<defs>
<clipPath id="clip0_549_6221">
<rect width="56" height="56" fill="white"/>
</clipPath>
</defs>
</svg>
