<svg width="16" height="16" viewBox="0 0 16 16" fill="none" xmlns="http://www.w3.org/2000/svg">
<path d="M1 9.00022H12.17L7.29 13.8802C6.9 14.2702 6.9 14.9102 7.29 15.3002C7.68 15.6902 8.31 15.6902 8.7 15.3002L15.29 8.71022C15.3827 8.61771 15.4563 8.50782 15.5064 8.38685C15.5566 8.26587 15.5824 8.13619 15.5824 8.00522C15.5824 7.87426 15.5566 7.74457 15.5064 7.6236C15.4563 7.50263 15.3827 7.39274 15.29 7.30022L8.71 0.700223C8.61742 0.607642 8.50751 0.534202 8.38654 0.484097C8.26558 0.433992 8.13593 0.408203 8.005 0.408203C7.87407 0.408203 7.74442 0.433992 7.62346 0.484097C7.50249 0.534202 7.39258 0.607642 7.3 0.700223C7.20742 0.792805 7.13398 0.902716 7.08387 1.02368C7.03377 1.14464 7.00798 1.27429 7.00798 1.40522C7.00798 1.53615 7.03377 1.6658 7.08387 1.78677C7.13398 1.90773 7.20742 2.01764 7.3 2.11022L12.17 7.00022H1C0.45 7.00022 0 7.45022 0 8.00022C0 8.55022 0.45 9.00022 1 9.00022Z" fill="white"/>
</svg>
