<svg width="25" height="25" viewBox="0 0 25 25" fill="none" xmlns="http://www.w3.org/2000/svg">
<path d="M23.551 13.4281L24.9897 5.55278C25.0071 5.45113 25.0024 5.34694 24.9759 5.24726C24.9495 5.14759 24.9019 5.05477 24.8364 4.9751C24.7717 4.89341 24.6892 4.82758 24.5952 4.78263C24.5012 4.73767 24.3981 4.7148 24.2939 4.71573H5.07106L4.45782 1.35577C4.3912 0.975841 4.19264 0.631578 3.89711 0.383583C3.60158 0.135588 3.22801 -0.000242805 2.84215 3.25829e-07H0.70759C0.519926 3.25829e-07 0.339947 0.0745255 0.207248 0.207181C0.0745495 0.339837 0 0.519757 0 0.70736C0 0.894964 0.0745495 1.07488 0.207248 1.20754C0.339947 1.3402 0.519926 1.41472 0.70759 1.41472H2.84215C2.8953 1.41631 2.94636 1.43581 2.98703 1.47005C3.02771 1.50429 3.05561 1.55126 3.06622 1.60335L6.33293 19.5467C5.92897 19.8717 5.61404 20.2937 5.41759 20.7734C5.22114 21.2531 5.14959 21.7748 5.20962 22.2897C5.26966 22.8045 5.45931 23.2958 5.76087 23.7174C6.06242 24.1391 6.46601 24.4774 6.93391 24.7008C7.4018 24.9242 7.91872 25.0253 8.43633 24.9946C8.95393 24.964 9.45532 24.8027 9.89361 24.5257C10.3319 24.2488 10.6928 23.8652 10.9425 23.4109C11.1922 22.9567 11.3226 22.4465 11.3214 21.9282C11.3238 21.3428 11.1558 20.7693 10.8379 20.2777H17.9374C17.6195 20.7693 17.4515 21.3428 17.4539 21.9282C17.4539 22.5344 17.6337 23.127 17.9706 23.6311C18.3076 24.1352 18.7864 24.5281 19.3467 24.7601C19.907 24.9921 20.5235 25.0528 21.1183 24.9345C21.7131 24.8162 22.2594 24.5243 22.6883 24.0956C23.1171 23.6669 23.4091 23.1208 23.5274 22.5262C23.6457 21.9316 23.585 21.3152 23.3529 20.7552C23.1209 20.1951 22.7279 19.7163 22.2236 19.3795C21.7194 19.0427 21.1266 18.8629 20.5201 18.8629H7.64197L7.04052 15.5619H21.0036C21.6109 15.5605 22.1985 15.3462 22.6639 14.9562C23.1294 14.5663 23.4433 14.0255 23.551 13.4281ZM9.90626 21.9282C9.90626 22.2546 9.80943 22.5737 9.62801 22.8451C9.44659 23.1166 9.18874 23.3281 8.88705 23.453C8.58536 23.578 8.25339 23.6106 7.93312 23.547C7.61285 23.4833 7.31866 23.3261 7.08775 23.0952C6.85685 22.8644 6.69961 22.5703 6.6359 22.2502C6.57219 21.93 6.60489 21.5981 6.72985 21.2965C6.85482 20.995 7.06644 20.7372 7.33795 20.5558C7.60946 20.3745 7.92867 20.2777 8.25522 20.2777C8.6931 20.2777 9.11305 20.4515 9.42268 20.7611C9.73231 21.0706 9.90626 21.4904 9.90626 21.9282ZM22.1712 21.9282C22.1712 22.2546 22.0743 22.5737 21.8929 22.8451C21.7115 23.1166 21.4536 23.3281 21.1519 23.453C20.8503 23.578 20.5183 23.6106 20.198 23.547C19.8777 23.4833 19.5836 23.3261 19.3527 23.0952C19.1217 22.8644 18.9645 22.5703 18.9008 22.2502C18.8371 21.93 18.8698 21.5981 18.9948 21.2965C19.1197 20.995 19.3313 20.7372 19.6028 20.5558C19.8744 20.3745 20.1936 20.2777 20.5201 20.2777C20.958 20.2777 21.3779 20.4515 21.6876 20.7611C21.9972 21.0706 22.1712 21.4904 22.1712 21.9282ZM5.33051 6.13046H23.4448L22.1594 13.1805C22.1098 13.4511 21.9672 13.6959 21.7561 13.8724C21.545 14.049 21.2788 14.1462 21.0036 14.1472H6.79287L5.33051 6.13046Z" fill="black"/>
</svg>
