<svg width="26" height="25" viewBox="0 0 26 25" fill="none" xmlns="http://www.w3.org/2000/svg">
<path d="M8.4747 19.4453C7.03323 19.4453 5.86475 20.6139 5.86475 22.0553C5.86475 23.4967 7.03329 24.6652 8.4747 24.6652C9.91617 24.6652 11.0847 23.4967 11.0847 22.0553C11.0847 20.6139 9.91617 19.4453 8.4747 19.4453ZM8.4747 23.5053C7.6739 23.5053 7.02474 22.8561 7.02474 22.0553C7.02474 21.2545 7.6739 20.6054 8.4747 20.6054C9.27551 20.6054 9.92466 21.2545 9.92466 22.0553C9.92472 22.8561 9.27551 23.5053 8.4747 23.5053Z" fill="white"/>
<path d="M19.4947 19.4453C18.0533 19.4453 16.8848 20.6139 16.8848 22.0553C16.8848 23.4967 18.0533 24.6652 19.4947 24.6652C20.9361 24.6652 22.1047 23.4967 22.1047 22.0553C22.1047 20.6139 20.9362 19.4453 19.4947 19.4453ZM19.4947 23.5053C18.6939 23.5053 18.0448 22.8561 18.0448 22.0553C18.0448 21.2545 18.6939 20.6054 19.4947 20.6054C20.2955 20.6054 20.9447 21.2545 20.9447 22.0553C20.9447 22.8561 20.2955 23.5053 19.4947 23.5053Z" fill="white"/>
<path d="M25.3818 4.22049C25.261 4.08855 25.0958 4.00595 24.9178 3.98847L6.03897 3.72747L5.51698 2.13247C5.14924 1.06623 4.15078 0.346407 3.02298 0.334473H1.08C0.759664 0.334473 0.5 0.594136 0.5 0.914469C0.5 1.2348 0.759664 1.49447 1.08 1.49447H3.02298C3.6536 1.5084 4.20889 1.91332 4.41499 2.50947L8.09796 13.6164L7.80799 14.2834C7.48455 15.1174 7.58169 16.0562 8.06899 16.8063C8.55162 17.5431 9.36359 17.9979 10.244 18.0243H21.5249C21.8453 18.0243 22.1049 17.7647 22.1049 17.4443C22.1049 17.124 21.8453 16.8643 21.5249 16.8643H10.2439C9.74675 16.8519 9.2891 16.5904 9.02594 16.1683C8.76572 15.7515 8.71226 15.2379 8.88095 14.7763L9.11297 14.2543L21.3219 12.9783C22.6629 12.8306 23.7661 11.8552 24.0769 10.5423L25.4689 4.71339C25.5316 4.54554 25.4983 4.35676 25.3818 4.22049ZM22.9459 10.2814C22.7576 11.1265 22.04 11.75 21.1769 11.8184L9.11297 13.0654L6.41598 4.88746L24.1928 5.14846L22.9459 10.2814Z" fill="white"/>
</svg>
