<svg width="25" height="25" viewBox="0 0 25 25" fill="none" xmlns="http://www.w3.org/2000/svg">
<path d="M8.31845 20.0001C8.87299 20.0001 9.40482 19.7732 9.79694 19.3692C10.1891 18.9653 10.4094 18.4175 10.4094 17.8462C10.4094 17.275 10.1891 16.7272 9.79694 16.3232C9.40482 15.9193 8.87299 15.6924 8.31845 15.6924C7.7639 15.6924 7.23207 15.9193 6.83995 16.3232C6.44783 16.7272 6.22754 17.275 6.22754 17.8462C6.22754 18.4175 6.44783 18.9653 6.83995 19.3692C7.23207 19.7732 7.7639 20.0001 8.31845 20.0001ZM18.773 20.0001C19.3275 20.0001 19.8594 19.7732 20.2515 19.3692C20.6436 18.9653 20.8639 18.4175 20.8639 17.8462C20.8639 17.275 20.6436 16.7272 20.2515 16.3232C19.8594 15.9193 19.3275 15.6924 18.773 15.6924C18.2185 15.6924 17.6866 15.9193 17.2945 16.3232C16.9024 16.7272 16.6821 17.275 16.6821 17.8462C16.6821 18.4175 16.9024 18.9653 17.2945 19.3692C17.6866 19.7732 18.2185 20.0001 18.773 20.0001Z" stroke="black" stroke-miterlimit="1.5" stroke-linecap="round" stroke-linejoin="round"/>
<path d="M10.4614 17.8462H15.6364V6.64615C15.6364 6.47478 15.5703 6.31043 15.4526 6.18925C15.335 6.06808 15.1755 6 15.0091 6H1M5.86136 17.8462H3.71818C3.63581 17.8462 3.55424 17.8294 3.47814 17.797C3.40203 17.7645 3.33288 17.7169 3.27463 17.6569C3.21639 17.5969 3.17018 17.5257 3.13866 17.4473C3.10713 17.3689 3.09091 17.2849 3.09091 17.2V11.9231" stroke="black" stroke-linecap="round"/>
<path d="M2.0459 9.23096H6.22772" stroke="black" stroke-linecap="round" stroke-linejoin="round"/>
<path d="M15.6367 9.23096H21.5017C21.623 9.23099 21.7416 9.26722 21.8433 9.33526C21.945 9.4033 22.0253 9.50024 22.0746 9.61434L23.946 13.9522C23.9816 14.0346 24.0002 14.1237 24.0004 14.2139V17.2002C24.0004 17.285 23.9841 17.3691 23.9526 17.4475C23.9211 17.5259 23.8749 17.5971 23.8166 17.6571C23.7584 17.7171 23.6892 17.7647 23.6131 17.7972C23.537 17.8296 23.4555 17.8463 23.3731 17.8463H21.3867M15.6367 17.8463H16.6822" stroke="black" stroke-linecap="round"/>
</svg>
