<svg width="25" height="15" viewBox="0 0 25 15" fill="none" xmlns="http://www.w3.org/2000/svg">
<path d="M0 13.9286C0 13.6444 0.109747 13.3719 0.305097 13.171C0.500448 12.97 0.765399 12.8571 1.04167 12.8571H7.29167C7.56793 12.8571 7.83289 12.97 8.02824 13.171C8.22359 13.3719 8.33333 13.6444 8.33333 13.9286C8.33333 14.2127 8.22359 14.4853 8.02824 14.6862C7.83289 14.8871 7.56793 15 7.29167 15H1.04167C0.765399 15 0.500448 14.8871 0.305097 14.6862C0.109747 14.4853 0 14.2127 0 13.9286ZM0 7.5C0 7.21584 0.109747 6.94332 0.305097 6.74239C0.500448 6.54145 0.765399 6.42857 1.04167 6.42857H15.625C15.9013 6.42857 16.1662 6.54145 16.3616 6.74239C16.5569 6.94332 16.6667 7.21584 16.6667 7.5C16.6667 7.78416 16.5569 8.05668 16.3616 8.25761C16.1662 8.45855 15.9013 8.57143 15.625 8.57143H1.04167C0.765399 8.57143 0.500448 8.45855 0.305097 8.25761C0.109747 8.05668 0 7.78416 0 7.5ZM0 1.07143C0 0.787268 0.109747 0.514746 0.305097 0.313814C0.500448 0.112883 0.765399 0 1.04167 0H23.9583C24.2346 0 24.4996 0.112883 24.6949 0.313814C24.8903 0.514746 25 0.787268 25 1.07143C25 1.35559 24.8903 1.62811 24.6949 1.82904C24.4996 2.02997 24.2346 2.14286 23.9583 2.14286H1.04167C0.765399 2.14286 0.500448 2.02997 0.305097 1.82904C0.109747 1.62811 0 1.35559 0 1.07143Z" fill="black"/>
</svg>
