<svg width="12" height="10" viewBox="0 0 12 10" fill="none" xmlns="http://www.w3.org/2000/svg">
<path d="M11.8593 0.948849L4.17968 9.83708C4.1351 9.88873 4.08217 9.9297 4.0239 9.95766C3.96563 9.98561 3.90317 10 3.8401 10C3.77702 10 3.71456 9.98561 3.65629 9.95766C3.59802 9.9297 3.54509 9.88873 3.50051 9.83708L0.140661 5.94848C0.0505971 5.84424 0 5.70286 0 5.55545C0 5.40804 0.0505971 5.26666 0.140661 5.16242C0.230724 5.05819 0.352876 4.99963 0.480245 4.99963C0.607615 4.99963 0.729767 5.05819 0.81983 5.16242L3.8401 8.65869L11.1802 0.162796C11.2702 0.0585594 11.3924 -1.09831e-09 11.5198 0C11.6471 1.09832e-09 11.7693 0.0585594 11.8593 0.162796C11.9494 0.267034 12 0.40841 12 0.555823C12 0.703236 11.9494 0.844612 11.8593 0.948849Z" fill="white"/>
</svg>
