<svg width="15" height="20" viewBox="0 0 15 20" fill="none" xmlns="http://www.w3.org/2000/svg">
<g clip-path="url(#clip0_754_6785)">
<path d="M7.5 19.7297L7.03846 19.2432C6.75 18.973 0 11.5135 0 7.02703C0 3.13514 3.34615 0 7.5 0C11.6538 0 15 3.13514 15 7.02703C15 11.5135 8.25 18.973 7.96154 19.2973L7.5 19.7297ZM7.5 1.08108C3.98077 1.08108 1.15385 3.72973 1.15385 7.02703C1.15385 10.4865 6 16.3243 7.5 18.0541C9 16.3243 13.8462 10.4865 13.8462 7.02703C13.8462 3.72973 11.0192 1.08108 7.5 1.08108Z" fill="black"/>
<path d="M7.49985 9.72962C5.88447 9.72962 4.61523 8.54044 4.61523 7.02692C4.61523 5.51341 5.88447 4.32422 7.49985 4.32422C9.11523 4.32422 10.3845 5.51341 10.3845 7.02692C10.3845 8.54044 9.11523 9.72962 7.49985 9.72962ZM7.49985 5.4053C6.51908 5.4053 5.76908 6.108 5.76908 7.02692C5.76908 7.94584 6.51908 8.64854 7.49985 8.64854C8.48062 8.64854 9.23062 7.94584 9.23062 7.02692C9.23062 6.108 8.48062 5.4053 7.49985 5.4053Z" fill="black"/>
</g>
<defs>
<clipPath id="clip0_754_6785">
<rect width="15" height="20" fill="white"/>
</clipPath>
</defs>
</svg>
