<svg width="98" height="63" viewBox="0 0 98 63" fill="none" xmlns="http://www.w3.org/2000/svg">
<path d="M15.3189 36L0 0.779223H5.6221L16.9695 28.9351L27.1821 0.779223H29.7611L16.1442 36H15.3189ZM43.1551 35.8442C40.748 35.8442 38.4441 35.2035 36.2435 33.9221C35.1088 33.264 34.1804 32.2944 33.4583 31.013C32.7705 29.697 32.4267 28.1731 32.4267 26.4416C32.4267 24.1558 33.2862 22.1645 35.0056 20.4675C36.7593 18.736 39.407 17.5757 42.9488 16.987C41.642 14.0433 40.9888 11.342 40.9888 8.88312C40.9888 7.39394 41.4357 5.69698 42.3298 3.79221C42.8456 2.71861 43.7225 1.81818 44.9604 1.09091C46.1983 0.363639 47.4705 0 48.7772 0C50.0838 0 51.4765 0.138528 52.9551 0.415587C54.4336 0.692639 55.5512 1.00433 56.3077 1.35065L55.7919 4.62338C53.5912 2.96104 50.8747 2.12987 47.6425 2.12987C45.9919 3.20347 45.1667 5.12555 45.1667 7.89611C45.1667 10.6666 46.0091 13.8355 47.694 17.4026C49.3789 20.9697 51.6483 24.1905 54.5025 27.0649C55.7059 25.0909 56.9438 22.0779 58.2161 18.026C57.322 18.026 56.6859 18.0087 56.3077 17.974V16.3636C59.7807 16.2597 62.7035 15.8788 65.0761 15.2208L64.1993 17.8182C63.5804 17.9221 62.394 18.0087 60.6404 18.0779C59.2649 22.303 57.6831 25.749 55.8951 28.4156C59.8151 31.8442 63.8382 33.5584 67.9646 33.5584L65.7467 35.1688C61.6891 35.1688 57.7347 33.7662 53.8835 30.961C50.8919 34.2165 47.3157 35.8442 43.1551 35.8442ZM44.6509 33.4026C47.6425 33.4026 50.2557 32.2251 52.4909 29.8701C48.8115 26.8225 45.8715 23.0822 43.6709 18.6494C41.3326 19.3074 39.6133 20.3636 38.513 21.8182C37.447 23.2381 36.914 24.7792 36.914 26.4416C36.914 28.8312 37.6361 30.5974 39.0804 31.7403C40.5589 32.8484 42.4157 33.4026 44.6509 33.4026ZM98 9.71429C98 13.039 96.7793 15.5671 94.3379 17.2987C91.9308 18.9957 88.647 19.8442 84.4863 19.8442H80.0505V35.1688H75.0474V0.779223H86.1368C89.6098 0.779223 92.4466 1.57576 94.6474 3.16883C96.8824 4.7619 98 6.94372 98 9.71429ZM80.0505 18.3377H84.641C86.2571 18.3377 87.6326 18.026 88.7674 17.4026C89.9365 16.7792 90.7789 15.9827 91.2947 15.013C92.2232 13.2814 92.6874 11.6017 92.6874 9.97403C92.6874 9.17749 92.481 8.22511 92.0684 7.11688C91.2431 4.83117 89.541 3.34199 86.9621 2.64935C84.4863 2.64935 82.1824 2.94372 80.0505 3.53247V18.3377Z" fill="#1F1F21"/>
<path d="M9.38199 59.9998L5.04199 50.1998H6.16199L10.222 59.4258H9.60599L13.694 50.1998H14.744L10.404 59.9998H9.38199Z" fill="black"/>
<path d="M20.0018 59.9998V58.3758L19.9598 58.1098V55.3938C19.9598 54.7685 19.7824 54.2878 19.4278 53.9518C19.0824 53.6158 18.5644 53.4478 17.8738 53.4478C17.3978 53.4478 16.9451 53.5272 16.5158 53.6858C16.0864 53.8445 15.7224 54.0545 15.4238 54.3158L14.9758 53.5738C15.3491 53.2565 15.7971 53.0138 16.3198 52.8458C16.8424 52.6685 17.3931 52.5798 17.9718 52.5798C18.9238 52.5798 19.6564 52.8178 20.1698 53.2938C20.6924 53.7605 20.9538 54.4745 20.9538 55.4358V59.9998H20.0018ZM17.4678 60.0698C16.9171 60.0698 16.4364 59.9812 16.0258 59.8038C15.6244 59.6172 15.3164 59.3652 15.1018 59.0478C14.8871 58.7212 14.7798 58.3478 14.7798 57.9278C14.7798 57.5452 14.8684 57.1998 15.0458 56.8918C15.2324 56.5745 15.5311 56.3225 15.9418 56.1358C16.3618 55.9398 16.9218 55.8418 17.6218 55.8418H20.1558V56.5838H17.6498C16.9404 56.5838 16.4458 56.7098 16.1658 56.9618C15.8951 57.2138 15.7598 57.5265 15.7598 57.8998C15.7598 58.3198 15.9231 58.6558 16.2498 58.9078C16.5764 59.1598 17.0338 59.2858 17.6218 59.2858C18.1818 59.2858 18.6624 59.1598 19.0638 58.9078C19.4744 58.6465 19.7731 58.2732 19.9598 57.7878L20.1838 58.4738C19.9971 58.9592 19.6704 59.3465 19.2038 59.6358C18.7464 59.9251 18.1678 60.0698 17.4678 60.0698Z" fill="black"/>
<path d="M27.4476 60.0698C26.8129 60.0698 26.2389 59.9251 25.7256 59.6358C25.2122 59.3371 24.8016 58.9125 24.4936 58.3618C24.1949 57.8018 24.0456 57.1205 24.0456 56.3178C24.0456 55.5152 24.1949 54.8385 24.4936 54.2878C24.7922 53.7278 25.1982 53.3032 25.7116 53.0138C26.2249 52.7245 26.8036 52.5798 27.4476 52.5798C28.1476 52.5798 28.7729 52.7385 29.3236 53.0558C29.8836 53.3638 30.3222 53.8025 30.6396 54.3718C30.9569 54.9318 31.1156 55.5805 31.1156 56.3178C31.1156 57.0645 30.9569 57.7178 30.6396 58.2778C30.3222 58.8378 29.8836 59.2765 29.3236 59.5938C28.7729 59.9112 28.1476 60.0698 27.4476 60.0698ZM23.6536 62.7158V52.6498H24.6056V54.8618L24.5076 56.3318L24.6476 57.8158V62.7158H23.6536ZM27.3776 59.1878C27.9002 59.1878 28.3669 59.0712 28.7776 58.8378C29.1882 58.5952 29.5149 58.2592 29.7576 57.8298C30.0002 57.3912 30.1216 56.8872 30.1216 56.3178C30.1216 55.7485 30.0002 55.2492 29.7576 54.8198C29.5149 54.3905 29.1882 54.0545 28.7776 53.8118C28.3669 53.5692 27.9002 53.4478 27.3776 53.4478C26.8549 53.4478 26.3836 53.5692 25.9636 53.8118C25.5529 54.0545 25.2262 54.3905 24.9836 54.8198C24.7502 55.2492 24.6336 55.7485 24.6336 56.3178C24.6336 56.8872 24.7502 57.3912 24.9836 57.8298C25.2262 58.2592 25.5529 58.5952 25.9636 58.8378C26.3836 59.0712 26.8549 59.1878 27.3776 59.1878Z" fill="black"/>
<path d="M36.2639 60.0698C35.4985 60.0698 34.8265 59.9112 34.2479 59.5938C33.6692 59.2672 33.2165 58.8238 32.8899 58.2638C32.5632 57.6945 32.3999 57.0458 32.3999 56.3178C32.3999 55.5898 32.5539 54.9458 32.8619 54.3858C33.1792 53.8258 33.6085 53.3872 34.1499 53.0698C34.7005 52.7431 35.3165 52.5798 35.9979 52.5798C36.6885 52.5798 37.2999 52.7385 37.8319 53.0558C38.3732 53.3638 38.7979 53.8025 39.1059 54.3718C39.4139 54.9318 39.5679 55.5805 39.5679 56.3178C39.5679 56.3645 39.5632 56.4158 39.5539 56.4718C39.5539 56.5185 39.5539 56.5698 39.5539 56.6258H33.1559V55.8838H39.0219L38.6299 56.1778C38.6299 55.6458 38.5132 55.1745 38.2799 54.7638C38.0559 54.3438 37.7479 54.0171 37.3559 53.7838C36.9639 53.5505 36.5112 53.4338 35.9979 53.4338C35.4939 53.4338 35.0412 53.5505 34.6399 53.7838C34.2385 54.0171 33.9259 54.3438 33.7019 54.7638C33.4779 55.1838 33.3659 55.6645 33.3659 56.2058V56.3598C33.3659 56.9198 33.4872 57.4145 33.7299 57.8438C33.9819 58.2638 34.3272 58.5952 34.7659 58.8378C35.2139 59.0712 35.7225 59.1878 36.2919 59.1878C36.7399 59.1878 37.1552 59.1085 37.5379 58.9498C37.9299 58.7911 38.2659 58.5485 38.5459 58.2218L39.1059 58.8658C38.7792 59.2578 38.3685 59.5565 37.8739 59.7618C37.3885 59.9672 36.8519 60.0698 36.2639 60.0698Z" fill="black"/>
<path d="M43.5651 60.0698C42.9584 60.0698 42.3844 59.9858 41.8431 59.8178C41.3017 59.6405 40.8771 59.4212 40.5691 59.1598L41.0171 58.3758C41.3157 58.5998 41.6984 58.7958 42.1651 58.9638C42.6317 59.1225 43.1217 59.2018 43.6351 59.2018C44.3351 59.2018 44.8391 59.0945 45.1471 58.8798C45.4551 58.6558 45.6091 58.3618 45.6091 57.9978C45.6091 57.7272 45.5204 57.5172 45.3431 57.3678C45.1751 57.2092 44.9511 57.0925 44.6711 57.0178C44.3911 56.9338 44.0784 56.8638 43.7331 56.8078C43.3877 56.7518 43.0424 56.6865 42.6971 56.6118C42.3611 56.5372 42.0531 56.4298 41.7731 56.2898C41.4931 56.1405 41.2644 55.9398 41.0871 55.6878C40.9191 55.4358 40.8351 55.0998 40.8351 54.6798C40.8351 54.2785 40.9471 53.9192 41.1711 53.6018C41.3951 53.2845 41.7217 53.0371 42.1511 52.8598C42.5897 52.6731 43.1217 52.5798 43.7471 52.5798C44.2231 52.5798 44.6991 52.6451 45.1751 52.7758C45.6511 52.8971 46.0431 53.0605 46.3511 53.2658L45.9171 54.0638C45.5904 53.8398 45.2404 53.6811 44.8671 53.5878C44.4937 53.4852 44.1204 53.4338 43.7471 53.4338C43.0844 53.4338 42.5944 53.5505 42.2771 53.7838C41.9691 54.0078 41.8151 54.2971 41.8151 54.6518C41.8151 54.9318 41.8991 55.1511 42.0671 55.3098C42.2444 55.4685 42.4731 55.5945 42.7531 55.6878C43.0424 55.7718 43.3551 55.8418 43.6911 55.8978C44.0364 55.9538 44.3771 56.0238 44.7131 56.1078C45.0584 56.1825 45.3711 56.2898 45.6511 56.4298C45.9404 56.5605 46.1691 56.7518 46.3371 57.0038C46.5144 57.2465 46.6031 57.5685 46.6031 57.9698C46.6031 58.3992 46.4817 58.7725 46.2391 59.0898C46.0057 59.3978 45.6604 59.6405 45.2031 59.8178C44.7551 59.9858 44.2091 60.0698 43.5651 60.0698Z" fill="black"/>
<path d="M51.017 60.0838C50.3823 60.0838 49.8177 59.9812 49.323 59.7758C48.8283 59.5612 48.4363 59.2672 48.147 58.8938C47.867 58.5205 47.727 58.0865 47.727 57.5918C47.727 57.1718 47.8203 56.7892 48.007 56.4438C48.1937 56.0892 48.4923 55.7438 48.903 55.4078C49.323 55.0625 49.8783 54.7032 50.569 54.3298C51.157 54.0032 51.6143 53.7232 51.941 53.4898C52.277 53.2472 52.515 53.0185 52.655 52.8038C52.795 52.5798 52.865 52.3418 52.865 52.0898C52.865 51.7258 52.739 51.4318 52.487 51.2078C52.2443 50.9838 51.8943 50.8718 51.437 50.8718C50.9423 50.8718 50.5597 50.9978 50.289 51.2498C50.0183 51.4925 49.883 51.8098 49.883 52.2018C49.883 52.3978 49.911 52.5845 49.967 52.7618C50.0323 52.9392 50.149 53.1352 50.317 53.3498C50.4943 53.5645 50.737 53.8351 51.045 54.1618L56.225 59.4958L55.651 60.1538L50.247 54.5958C49.9203 54.2505 49.659 53.9518 49.463 53.6998C49.2763 53.4385 49.1457 53.1911 49.071 52.9578C48.9963 52.7245 48.959 52.4772 48.959 52.2158C48.959 51.7958 49.057 51.4318 49.253 51.1238C49.4583 50.8065 49.7477 50.5638 50.121 50.3958C50.4943 50.2185 50.933 50.1298 51.437 50.1298C51.8943 50.1298 52.291 50.2091 52.627 50.3678C52.9723 50.5171 53.2383 50.7365 53.425 51.0258C53.621 51.3152 53.719 51.6652 53.719 52.0758C53.719 52.4305 53.6303 52.7618 53.453 53.0698C53.285 53.3778 53.005 53.6812 52.613 53.9798C52.221 54.2692 51.689 54.5958 51.017 54.9598C50.429 55.2865 49.9623 55.5852 49.617 55.8558C49.281 56.1265 49.043 56.3925 48.903 56.6538C48.763 56.9058 48.693 57.1858 48.693 57.4938C48.693 57.8485 48.791 58.1612 48.987 58.4318C49.1923 58.6932 49.4723 58.8985 49.827 59.0478C50.191 59.1878 50.6063 59.2578 51.073 59.2578C51.7263 59.2578 52.3097 59.1225 52.823 58.8518C53.3363 58.5812 53.7657 58.1705 54.111 57.6198C54.4657 57.0691 54.7223 56.3785 54.881 55.5478L55.679 55.7998C55.5017 56.7332 55.1983 57.5172 54.769 58.1518C54.3397 58.7865 53.8077 59.2672 53.173 59.5938C52.5383 59.9205 51.8197 60.0838 51.017 60.0838Z" fill="black"/>
<path d="M58.0022 59.9998V50.1998H61.6702C62.5009 50.1998 63.2149 50.3351 63.8122 50.6058C64.4096 50.8672 64.8669 51.2498 65.1842 51.7538C65.5109 52.2485 65.6742 52.8505 65.6742 53.5598C65.6742 54.2505 65.5109 54.8478 65.1842 55.3518C64.8669 55.8465 64.4096 56.2292 63.8122 56.4998C63.2149 56.7705 62.5009 56.9058 61.6702 56.9058H58.5762L59.0382 56.4158V59.9998H58.0022ZM59.0382 56.4998L58.5762 55.9958H61.6422C62.6222 55.9958 63.3642 55.7858 63.8682 55.3658C64.3816 54.9365 64.6382 54.3345 64.6382 53.5598C64.6382 52.7758 64.3816 52.1692 63.8682 51.7398C63.3642 51.3105 62.6222 51.0958 61.6422 51.0958H58.5762L59.0382 50.6058V56.4998Z" fill="black"/>
<path d="M70.6593 60.0698C69.95 60.0698 69.3107 59.9112 68.7413 59.5938C68.1813 59.2672 67.738 58.8238 67.4113 58.2638C67.0847 57.6945 66.9213 57.0458 66.9213 56.3178C66.9213 55.5805 67.0847 54.9318 67.4113 54.3718C67.738 53.8118 68.1813 53.3732 68.7413 53.0558C69.3013 52.7385 69.9407 52.5798 70.6593 52.5798C71.3873 52.5798 72.0313 52.7385 72.5913 53.0558C73.1607 53.3732 73.604 53.8118 73.9213 54.3718C74.248 54.9318 74.4113 55.5805 74.4113 56.3178C74.4113 57.0458 74.248 57.6945 73.9213 58.2638C73.604 58.8238 73.1607 59.2672 72.5913 59.5938C72.022 59.9112 71.378 60.0698 70.6593 60.0698ZM70.6593 59.1878C71.1913 59.1878 71.6627 59.0712 72.0733 58.8378C72.484 58.5952 72.806 58.2592 73.0393 57.8298C73.282 57.3912 73.4033 56.8872 73.4033 56.3178C73.4033 55.7391 73.282 55.2352 73.0393 54.8058C72.806 54.3765 72.484 54.0452 72.0733 53.8118C71.6627 53.5692 71.196 53.4478 70.6733 53.4478C70.1507 53.4478 69.684 53.5692 69.2733 53.8118C68.8627 54.0452 68.536 54.3765 68.2933 54.8058C68.0507 55.2352 67.9293 55.7391 67.9293 56.3178C67.9293 56.8872 68.0507 57.3912 68.2933 57.8298C68.536 58.2592 68.8627 58.5952 69.2733 58.8378C69.684 59.0712 70.146 59.1878 70.6593 59.1878Z" fill="black"/>
<path d="M79.3667 60.0698C78.6667 60.0698 78.0367 59.9112 77.4767 59.5938C76.926 59.2765 76.492 58.8378 76.1747 58.2778C75.8573 57.7085 75.6987 57.0552 75.6987 56.3178C75.6987 55.5711 75.8573 54.9178 76.1747 54.3578C76.492 53.7978 76.926 53.3638 77.4767 53.0558C78.0367 52.7385 78.6667 52.5798 79.3667 52.5798C80.0107 52.5798 80.5847 52.7245 81.0887 53.0138C81.602 53.3032 82.008 53.7278 82.3067 54.2878C82.6147 54.8385 82.7687 55.5152 82.7687 56.3178C82.7687 57.1112 82.6193 57.7878 82.3207 58.3478C82.022 58.9078 81.616 59.3371 81.1027 59.6358C80.5987 59.9251 80.02 60.0698 79.3667 60.0698ZM79.4367 59.1878C79.9594 59.1878 80.426 59.0712 80.8367 58.8378C81.2567 58.5952 81.5833 58.2592 81.8167 57.8298C82.0593 57.3912 82.1807 56.8872 82.1807 56.3178C82.1807 55.7391 82.0593 55.2352 81.8167 54.8058C81.5833 54.3765 81.2567 54.0452 80.8367 53.8118C80.426 53.5692 79.9594 53.4478 79.4367 53.4478C78.9234 53.4478 78.4613 53.5692 78.0507 53.8118C77.64 54.0452 77.3133 54.3765 77.0707 54.8058C76.828 55.2352 76.7067 55.7391 76.7067 56.3178C76.7067 56.8872 76.828 57.3912 77.0707 57.8298C77.3133 58.2592 77.64 58.5952 78.0507 58.8378C78.4613 59.0712 78.9234 59.1878 79.4367 59.1878ZM82.2087 59.9998V57.7878L82.3067 56.3038L82.1667 54.8198V49.6118H83.1607V59.9998H82.2087Z" fill="black"/>
<path d="M87.903 60.0698C87.2963 60.0698 86.7223 59.9858 86.181 59.8178C85.6396 59.6405 85.215 59.4212 84.907 59.1598L85.355 58.3758C85.6536 58.5998 86.0363 58.7958 86.503 58.9638C86.9696 59.1225 87.4596 59.2018 87.973 59.2018C88.673 59.2018 89.177 59.0945 89.485 58.8798C89.793 58.6558 89.947 58.3618 89.947 57.9978C89.947 57.7272 89.8583 57.5172 89.681 57.3678C89.513 57.2092 89.289 57.0925 89.009 57.0178C88.729 56.9338 88.4163 56.8638 88.071 56.8078C87.7256 56.7518 87.3803 56.6865 87.035 56.6118C86.699 56.5372 86.391 56.4298 86.111 56.2898C85.831 56.1405 85.6023 55.9398 85.425 55.6878C85.257 55.4358 85.173 55.0998 85.173 54.6798C85.173 54.2785 85.285 53.9192 85.509 53.6018C85.733 53.2845 86.0596 53.0371 86.489 52.8598C86.9276 52.6731 87.4596 52.5798 88.085 52.5798C88.561 52.5798 89.037 52.6451 89.513 52.7758C89.989 52.8971 90.381 53.0605 90.689 53.2658L90.255 54.0638C89.9283 53.8398 89.5783 53.6811 89.205 53.5878C88.8316 53.4852 88.4583 53.4338 88.085 53.4338C87.4223 53.4338 86.9323 53.5505 86.615 53.7838C86.307 54.0078 86.153 54.2971 86.153 54.6518C86.153 54.9318 86.237 55.1511 86.405 55.3098C86.5823 55.4685 86.811 55.5945 87.091 55.6878C87.3803 55.7718 87.693 55.8418 88.029 55.8978C88.3743 55.9538 88.715 56.0238 89.051 56.1078C89.3963 56.1825 89.709 56.2898 89.989 56.4298C90.2783 56.5605 90.507 56.7518 90.675 57.0038C90.8523 57.2465 90.941 57.5685 90.941 57.9698C90.941 58.3992 90.8196 58.7725 90.577 59.0898C90.3436 59.3978 89.9983 59.6405 89.541 59.8178C89.093 59.9858 88.547 60.0698 87.903 60.0698Z" fill="black"/>
</svg>
