<svg width="136" height="50" viewBox="0 0 136 50" fill="none" xmlns="http://www.w3.org/2000/svg">
<path d="M21.2589 50L0 1.08225H7.8021L23.5495 40.1876L37.7221 1.08225H41.3011L22.4042 50H21.2589ZM59.8887 49.7836C56.5483 49.7836 53.3511 48.8938 50.2971 47.114C48.7224 46.2 47.434 44.8533 46.4319 43.0736C45.4774 41.2458 45.0003 39.1293 45.0003 36.7244C45.0003 33.5498 46.1932 30.7841 48.5792 28.4271C51.0129 26.0222 54.6873 24.4107 59.6024 23.5931C57.789 19.5045 56.8824 15.7527 56.8824 12.3377C56.8824 10.2694 57.5026 7.91247 58.7434 5.26696C59.4592 3.77585 60.6761 2.52526 62.394 1.51515C64.1119 0.505054 65.8774 0 67.6908 0C69.5041 0 71.4367 0.192401 73.4887 0.577204C75.5405 0.961999 77.0915 1.3949 78.1413 1.8759L77.4255 6.42136C74.3715 4.11256 70.6016 2.95816 66.1161 2.95816C63.8255 4.44926 62.6803 7.11882 62.6803 10.9668C62.6803 14.8148 63.8494 19.2159 66.1877 24.1703C68.5258 29.1246 71.6753 33.5979 75.6361 37.5902C77.3062 34.8485 79.0241 30.6638 80.7898 25.0361C79.549 25.0361 78.6662 25.0121 78.1413 24.9639V22.7273C82.9609 22.583 87.0171 22.0539 90.3098 21.14L89.0929 24.7475C88.234 24.8918 86.5877 25.0121 84.154 25.1082C82.2451 30.9764 80.05 35.7624 77.5687 39.4661C83.0087 44.228 88.5919 46.6089 94.3182 46.6089L91.2403 48.8456C85.6094 48.8456 80.1216 46.8975 74.7771 43.0014C70.6255 47.5229 65.6626 49.7836 59.8887 49.7836ZM61.9645 46.3925C66.1161 46.3925 69.7426 44.757 72.8445 41.4863C67.7384 37.2534 63.6584 32.0586 60.6045 25.9019C57.3595 26.8158 54.9736 28.2828 53.4466 30.303C51.9673 32.2751 51.2277 34.4156 51.2277 36.7244C51.2277 40.0433 52.2298 42.4964 54.234 44.0837C56.2858 45.6228 58.8626 46.3925 61.9645 46.3925ZM136 13.4921C136 18.1097 134.306 21.621 130.918 24.026C127.577 26.3829 123.02 27.5613 117.246 27.5613H111.091V48.8456H104.147V1.08225H119.537C124.356 1.08225 128.293 2.18855 131.347 4.40116C134.449 6.61375 136 9.64405 136 13.4921ZM111.091 25.469H117.461C119.704 25.469 121.613 25.0361 123.187 24.1703C124.81 23.3045 125.979 22.1982 126.695 20.8514C127.983 18.4464 128.627 16.1135 128.627 13.8528C128.627 12.7465 128.341 11.4238 127.768 9.88456C126.623 6.70996 124.261 4.64165 120.682 3.67966C117.246 3.67966 114.049 4.0885 111.091 4.90621V25.469Z" fill="white"/>
</svg>
