<svg width="150" height="108" viewBox="0 0 150 108" fill="none" xmlns="http://www.w3.org/2000/svg">
<path d="M55.2632 22.1639C55.2632 22.1639 57.256 2 75.9888 2C94.7215 2 96.3158 22.5672 96.3158 22.5672" stroke="#7878F5" stroke-width="3"/>
<path d="M54.4736 22.1639C54.4736 22.1639 56.4665 2 75.1992 2C93.932 2 95.5263 22.5672 95.5263 22.5672" stroke="#311496" stroke-width="3"/>
<path d="M35.2891 26.2314C36.8706 22.567 40.4795 20.1938 44.4705 20.1938H106.264C110.283 20.1938 113.911 22.5996 115.476 26.3013L144.129 94.1073C146.915 100.7 142.075 108 134.918 108H15.2073C8.01722 108 3.1768 100.639 6.02583 94.0374L35.2891 26.2314Z" fill="#311496"/>
<path d="M35.2786 26.9926C36.8674 23.3444 40.4678 20.9854 44.4469 20.9854H106.288C110.295 20.9854 113.915 23.3771 115.486 27.0629L144.063 94.0778C146.876 100.674 142.036 108 134.865 108H15.2621C8.05785 108 3.21731 100.613 6.09381 94.0075L35.2786 26.9926Z" fill="#7878F5"/>
<ellipse cx="54.4737" cy="52.6271" rx="3.94737" ry="3.95522" fill="#311496"/>
<ellipse cx="95.5263" cy="52.6271" rx="3.94737" ry="3.95522" fill="#311496"/>
<path d="M91.0714 82.178C91.722 82.6909 92.6651 82.5792 93.178 81.9286C93.6909 81.278 93.5792 80.3349 92.9286 79.822L91.0714 82.178ZM58 81C58.9286 82.178 58.9283 82.1782 58.928 82.1785C58.928 82.1785 58.9277 82.1787 58.9276 82.1788C58.9274 82.179 58.9272 82.1791 58.9272 82.1791C58.9272 82.1791 58.9277 82.1787 58.9286 82.178C58.9304 82.1766 58.934 82.1738 58.9394 82.1696C58.9503 82.1612 58.9683 82.1474 58.9933 82.1285C59.0432 82.0906 59.1211 82.0325 59.2254 81.9569C59.4342 81.8057 59.7484 81.585 60.1569 81.3179C60.9747 80.7832 62.1646 80.066 63.6366 79.3483C66.5949 77.9058 70.6134 76.5 75 76.5V73.5C69.9978 73.5 65.5163 75.0942 62.3218 76.6517C60.7173 77.434 59.4177 78.2168 58.515 78.8071C58.0632 79.1025 57.7095 79.3506 57.4653 79.5275C57.3432 79.6159 57.2484 79.6867 57.1823 79.7368C57.1492 79.7618 57.1233 79.7817 57.1048 79.796C57.0955 79.8031 57.0881 79.8089 57.0825 79.8133C57.0797 79.8155 57.0774 79.8173 57.0755 79.8187C57.0746 79.8195 57.0738 79.8201 57.0731 79.8206C57.0728 79.8209 57.0723 79.8213 57.0722 79.8214C57.0717 79.8217 57.0714 79.822 58 81ZM75 76.5C79.3866 76.5 83.4051 77.9058 86.3634 79.3483C87.8354 80.066 89.0253 80.7832 89.8432 81.3179C90.2516 81.585 90.5658 81.8057 90.7746 81.9569C90.8789 82.0325 90.9568 82.0906 91.0067 82.1285C91.0317 82.1474 91.0497 82.1612 91.0606 82.1696C91.066 82.1738 91.0696 82.1766 91.0714 82.178C91.0723 82.1787 91.0728 82.1791 91.0728 82.1791C91.0728 82.1791 91.0726 82.179 91.0724 82.1788C91.0723 82.1787 91.072 82.1785 91.072 82.1785C91.0717 82.1782 91.0714 82.178 92 81C92.9286 79.822 92.9283 79.8217 92.9278 79.8214C92.9277 79.8213 92.9272 79.8209 92.9269 79.8206C92.9262 79.8201 92.9254 79.8195 92.9245 79.8187C92.9226 79.8173 92.9203 79.8155 92.9175 79.8133C92.9119 79.8089 92.9045 79.8031 92.8952 79.796C92.8767 79.7817 92.8508 79.7618 92.8177 79.7368C92.7516 79.6867 92.6568 79.6159 92.5347 79.5275C92.2905 79.3506 91.9368 79.1025 91.485 78.8071C90.5823 78.2168 89.2827 77.434 87.6782 76.6517C84.4837 75.0942 80.0022 73.5 75 73.5V76.5Z" fill="white"/>
</svg>
