<svg width="25" height="25" viewBox="0 0 25 25" fill="none" xmlns="http://www.w3.org/2000/svg">
<path d="M9.82015 1.42906e-07C11.6868 -0.000318225 13.5148 0.531315 15.0902 1.53262C16.6655 2.53392 17.9229 3.96342 18.7149 5.65365C19.507 7.34388 19.801 9.22484 19.5625 11.0762C19.324 12.9275 18.5628 14.6725 17.3682 16.1067L24.7376 23.4744C24.8958 23.6319 24.9893 23.8429 24.9996 24.0659C25.0099 24.2888 24.9364 24.5076 24.7934 24.679C24.6504 24.8504 24.4485 24.9621 24.2273 24.992C24.0061 25.0218 23.7817 24.9678 23.5984 24.8405L23.4734 24.7387L16.1057 17.3692C14.8936 18.3783 13.4563 19.0806 11.9154 19.4167C10.3745 19.7529 8.77524 19.713 7.253 19.3004C5.73076 18.8878 4.33028 18.1147 3.16999 17.0464C2.00971 15.9782 1.12376 14.6462 0.587078 13.1632C0.0503973 11.6801 -0.121227 10.0897 0.0867195 8.52627C0.294666 6.96288 0.876068 5.47257 1.78175 4.18138C2.68743 2.89019 3.89075 1.83611 5.28993 1.10829C6.68911 0.380471 8.243 0.000323201 9.82015 1.42906e-07ZM9.82015 1.78567C7.689 1.78567 5.64514 2.63227 4.13819 4.13922C2.63123 5.64617 1.78464 7.69004 1.78464 9.82119C1.78464 11.9523 2.63123 13.9962 4.13819 15.5032C5.64514 17.0101 7.689 17.8567 9.82015 17.8567C11.9513 17.8567 13.9952 17.0101 15.5021 15.5032C17.0091 13.9962 17.8557 11.9523 17.8557 9.82119C17.8557 7.69004 17.0091 5.64617 15.5021 4.13922C13.9952 2.63227 11.9513 1.78567 9.82015 1.78567Z" fill="black"/>
</svg>
