<svg width="15" height="15" viewBox="0 0 15 15" fill="none" xmlns="http://www.w3.org/2000/svg">
<path d="M1.99806 15H12.9995C13.3213 15 13.6301 14.8576 13.8582 14.6039C14.0864 14.3502 14.2153 14.0059 14.2168 13.6462V7.38186L14.4111 7.17114L14.514 7.05619C14.7287 6.74975 14.8779 6.39254 14.9502 6.01183C15.0225 5.63112 15.016 5.23698 14.9312 4.85951L14.1082 1.0281C14.0481 0.738538 13.9028 0.479868 13.6956 0.293478C13.4884 0.107088 13.2312 0.00375006 12.9652 0H2.03806C1.77124 0.000323439 1.51252 0.102401 1.30467 0.289349C1.09683 0.476296 0.952325 0.736915 0.895057 1.0281L0.0663775 4.85951C-0.0167507 5.23651 -0.0218684 5.62971 0.0514135 6.00924C0.124695 6.38877 0.274448 6.74465 0.48929 7.04981C0.514745 7.08504 0.543481 7.11715 0.575015 7.14559L0.700746 7.28608L0.792186 7.39464V13.6462C0.792183 14.0042 0.919047 14.3475 1.14503 14.6012C1.37101 14.8549 1.67772 14.9983 1.99806 15ZM13.2109 0.951469L14.1025 5.10217C14.1539 5.33735 14.1569 5.58247 14.1114 5.81915C14.0659 6.05582 13.9729 6.2779 13.8396 6.46871C13.7216 6.64572 13.5681 6.78935 13.3915 6.88806C13.2148 6.98676 13.0198 7.03779 12.8223 7.03704C12.4921 7.03206 12.1752 6.89011 11.9334 6.63876C11.6915 6.3874 11.5419 6.04458 11.5136 5.67688L11.0107 0.951469H13.2109ZM7.93026 0.951469H10.142L10.6049 5.27458C10.6339 5.503 10.6177 5.73574 10.5575 5.95641C10.4973 6.17707 10.3944 6.38029 10.2563 6.55172C10.1309 6.7124 9.97504 6.83989 9.80008 6.92493C9.62512 7.00998 9.43541 7.05045 9.24471 7.04342C8.88645 7.03173 8.54695 6.86185 8.30057 6.571C8.05419 6.28015 7.92103 5.89204 7.93026 5.4917V0.951469ZM4.38694 5.27458L4.85557 0.951469H7.073V5.46616C7.07603 5.66764 7.04331 5.86781 6.97674 6.0551C6.91017 6.24238 6.81106 6.41309 6.68513 6.55735C6.55921 6.70161 6.40896 6.81659 6.24306 6.89563C6.07716 6.97467 5.89889 7.01622 5.71854 7.01788C5.53629 7.01586 5.35639 6.9717 5.19016 6.88818C5.02393 6.80465 4.87499 6.68357 4.7527 6.53257C4.61978 6.3593 4.52053 6.15707 4.46124 5.9387C4.39669 5.72518 4.37142 5.49929 4.38694 5.27458ZM5.75283 7.97573C6.31732 7.97319 6.85787 7.72058 7.25588 7.27331L7.50735 6.99872L7.75309 7.27331C8.16631 7.71217 8.71462 7.95688 9.28472 7.95688C9.85482 7.95688 10.4031 7.71217 10.8163 7.27331L11.0678 6.98595L11.3193 7.27331C11.5153 7.49899 11.7498 7.67854 12.0089 7.80138C12.2681 7.92421 12.5466 7.98783 12.828 7.98851H12.868L13.3652 7.91826V14.0421H1.64373V7.89911L2.12379 7.96935H2.18094C2.46155 7.96854 2.73917 7.90483 2.99735 7.78198C3.25552 7.65913 3.48901 7.47965 3.68399 7.25415L3.93545 6.96679L4.19263 7.25415C4.3962 7.48503 4.6392 7.66787 4.90721 7.79182C5.17522 7.91577 5.46278 7.97831 5.75283 7.97573ZM0.895057 5.10217L1.75231 0.951469H4.00403L3.48397 5.66411C3.45199 6.02854 3.30187 6.36734 3.06187 6.61668C2.82187 6.86603 2.50855 7.00872 2.18094 7.01788C1.98035 7.01887 1.78233 6.96742 1.60272 6.86763C1.4231 6.76784 1.26687 6.62248 1.14652 6.44317C1.01554 6.25606 0.924751 6.03785 0.881153 5.80536C0.837556 5.57286 0.842313 5.33229 0.895057 5.10217Z" fill="#010101"/>
</svg>
