<svg width="25" height="25" viewBox="0 0 25 25" fill="none" xmlns="http://www.w3.org/2000/svg">
<path d="M12.3282 0C5.51946 0 0 5.59639 0 12.5C0 19.4036 5.51946 25 12.3282 25C19.1369 25 24.6564 19.4036 24.6564 12.5C24.6564 5.59639 19.1369 0 12.3282 0Z" fill="#40B3E0"/>
<path d="M18.3268 7.19052L16.1249 18.4471C16.1249 18.4471 15.817 19.2277 14.9701 18.853L9.88874 14.903L8.04106 13.9975L4.9307 12.9358C4.9307 12.9358 4.45336 12.7642 4.40713 12.3894C4.361 12.0147 4.94611 11.8118 4.94611 11.8118L17.3105 6.89384C17.3105 6.89384 18.3268 6.4411 18.3268 7.19052Z" fill="white"/>
<path d="M9.49839 18.3205C9.49839 18.3205 9.35007 18.3064 9.16524 17.7131C8.98051 17.1198 8.04126 13.9974 8.04126 13.9974L15.5092 9.18877C15.5092 9.18877 15.9403 8.92334 15.9249 9.18877C15.9249 9.18877 16.0019 9.23555 15.7709 9.4541C15.54 9.67275 9.90436 14.8092 9.90436 14.8092" fill="#D2E5F1"/>
<path d="M11.8369 16.4173L9.82706 18.2753C9.82706 18.2753 9.66997 18.3962 9.49805 18.3204L9.88292 14.8691" fill="#B5CFE4"/>
</svg>
