<svg width="35" height="35" viewBox="0 0 35 35" fill="none" xmlns="http://www.w3.org/2000/svg">
<path d="M17.5 0C7.83494 0 0 7.83494 0 17.5C0 27.1651 7.83494 35 17.5 35C27.1651 35 35 27.1651 35 17.5C35 7.83494 27.1651 0 17.5 0Z" fill="#40B3E0"/>
<path d="M26.0153 10.0665L22.8896 25.8257C22.8896 25.8257 22.4525 26.9186 21.2503 26.394L14.0373 20.864L11.4145 19.5964L6.99932 18.11C6.99932 18.11 6.32175 17.8696 6.25612 17.345C6.19063 16.8204 7.0212 16.5363 7.0212 16.5363L24.5726 9.65118C24.5726 9.65118 26.0153 9.01735 26.0153 10.0665Z" fill="white"/>
<path d="M13.483 25.6488C13.483 25.6488 13.2724 25.6291 13.0101 24.7984C12.7478 23.9679 11.4146 19.5964 11.4146 19.5964L22.0153 12.8644C22.0153 12.8644 22.6274 12.4928 22.6055 12.8644C22.6055 12.8644 22.7148 12.9299 22.3869 13.2358C22.0591 13.542 14.0592 20.733 14.0592 20.733" fill="#D2E5F1"/>
<path d="M16.803 22.9848L13.9499 25.586C13.9499 25.586 13.727 25.7553 13.4829 25.6492L14.0292 20.8174" fill="#B5CFE4"/>
</svg>
