<svg width="45" height="45" viewBox="0 0 45 45" fill="none" xmlns="http://www.w3.org/2000/svg">
<circle cx="22.5" cy="22.5" r="22.5" fill="#7878F5"/>
<path d="M30.833 28.7501C30.833 29.0263 30.7233 29.2913 30.5279 29.4867C30.3326 29.682 30.0676 29.7917 29.7913 29.7917L15.208 29.7917C14.9317 29.7917 14.6668 29.682 14.4714 29.4866C14.2761 29.2913 14.1663 29.0263 14.1663 28.7501C14.1663 28.4738 14.2761 28.2089 14.4714 28.0135C14.6668 27.8182 14.9317 27.7084 15.208 27.7084L29.7913 27.7084C30.0676 27.7084 30.3326 27.8182 30.5279 28.0135C30.7233 28.2089 30.833 28.4738 30.833 28.7501ZM30.833 16.2501C30.833 16.5263 30.7233 16.7913 30.5279 16.9867C30.3326 17.182 30.0676 17.2917 29.7913 17.2917L15.208 17.2917C14.9317 17.2917 14.6668 17.182 14.4714 16.9867C14.2761 16.7913 14.1663 16.5263 14.1663 16.2501C14.1663 15.9738 14.2761 15.7089 14.4714 15.5135C14.6668 15.3182 14.9317 15.2084 15.208 15.2084L29.7913 15.2084C30.0676 15.2084 30.3326 15.3182 30.5279 15.5135C30.7233 15.7089 30.833 15.9738 30.833 16.2501ZM23.5413 23.5417C23.8176 23.5417 24.0826 23.432 24.2779 23.2367C24.4733 23.0413 24.583 22.7763 24.583 22.5001C24.583 22.2238 24.4733 21.9589 24.2779 21.7635C24.0826 21.5682 23.8176 21.4584 23.5413 21.4584L15.208 21.4584C14.9317 21.4584 14.6668 21.5682 14.4714 21.7635C14.2761 21.9589 14.1663 22.2238 14.1663 22.5001C14.1663 22.7763 14.2761 23.0413 14.4714 23.2366C14.6668 23.432 14.9317 23.5417 15.208 23.5417L23.5413 23.5417Z" fill="white"/>
</svg>
