<svg width="25" height="25" viewBox="0 0 25 25" fill="none" xmlns="http://www.w3.org/2000/svg">
<path d="M12.5 0C5.59639 0 0 5.59639 0 12.5C0 19.4036 5.59639 25 12.5 25C19.4036 25 25 19.4036 25 12.5C25 5.59639 19.4036 0 12.5 0Z" fill="#40B3E0"/>
<path d="M18.5816 7.19052L16.349 18.4471C16.349 18.4471 16.0368 19.2277 15.1781 18.853L10.026 14.903L8.15253 13.9975L4.99882 12.9358C4.99882 12.9358 4.51483 12.7641 4.46796 12.3894C4.42118 12.0147 5.01444 11.8118 5.01444 11.8118L17.5512 6.89384C17.5512 6.89384 18.5816 6.4411 18.5816 7.19052Z" fill="white"/>
<path d="M9.63052 18.3205C9.63052 18.3205 9.48013 18.3064 9.29272 17.7131C9.10542 17.1198 8.15308 13.9974 8.15308 13.9974L15.725 9.18877C15.725 9.18877 16.1623 8.92334 16.1466 9.18877C16.1466 9.18877 16.2247 9.23555 15.9905 9.4541C15.7563 9.67275 10.0421 14.8092 10.0421 14.8092" fill="#D2E5F1"/>
<path d="M12.0016 16.4173L9.96372 18.2753C9.96372 18.2753 9.80444 18.3962 9.63013 18.3204L10.0204 14.8691" fill="#B5CFE4"/>
</svg>
