<svg width="35" height="35" viewBox="0 0 35 35" fill="none" xmlns="http://www.w3.org/2000/svg">
<circle cx="17.5" cy="17.5" r="17.5" fill="#F8F8F8"/>
<path d="M23.7869 17.4846C23.3645 17.4842 22.9518 17.6161 22.6027 17.8629C22.5305 17.5177 22.3789 17.1958 22.161 16.9246C21.943 16.6533 21.665 16.4408 21.3509 16.3052C21.0367 16.1695 20.6955 16.1148 20.3565 16.1456C20.0176 16.1764 19.6908 16.2918 19.4041 16.482V13.609C19.4041 13.028 19.1817 12.4709 18.786 12.0601C18.3902 11.6492 17.8535 11.4185 17.2938 11.4185C16.7341 11.4185 16.1974 11.6492 15.8016 12.0601C15.4059 12.4709 15.1836 13.028 15.1836 13.609V20.939L14.5724 19.9195C14.2918 19.4168 13.8303 19.0503 13.2894 18.9007C12.7486 18.7512 12.1726 18.8308 11.6883 19.1221C11.2039 19.4133 10.8509 19.8924 10.7069 20.4539C10.5628 21.0153 10.6395 21.6132 10.9201 22.116L11.2991 22.8111C14.0587 27.8662 15.2006 29.9532 18.9171 29.9532C20.7676 29.9509 22.5418 29.1868 23.8503 27.8285C25.1589 26.4701 25.895 24.6284 25.8971 22.7074V19.6752C25.8971 19.3875 25.8425 19.1027 25.7365 18.8369C25.6304 18.5711 25.475 18.3296 25.279 18.1262C25.0831 17.9228 24.8505 17.7615 24.5944 17.6514C24.3384 17.5413 24.064 17.4846 23.7869 17.4846ZM24.9232 22.7083C24.9212 24.3612 24.2878 25.9459 23.1619 27.1147C22.0359 28.2834 20.5094 28.941 18.9171 28.943C15.7679 28.943 14.8589 27.2722 12.1464 22.3131L11.7658 21.613C11.6151 21.3423 11.5742 21.0205 11.6519 20.7184C11.7297 20.4164 11.9198 20.1587 12.1805 20.0021C12.353 19.898 12.5491 19.8433 12.7487 19.8437C12.9485 19.8433 13.1449 19.8976 13.318 20.0012C13.4911 20.1047 13.6349 20.2538 13.7348 20.4335L13.7429 20.4478L15.2591 22.9754C15.3153 23.0677 15.3989 23.1386 15.4973 23.1775C15.5956 23.2163 15.7034 23.2211 15.8046 23.191C15.9058 23.161 15.9949 23.0977 16.0585 23.0106C16.1221 22.9236 16.1569 22.8175 16.1575 22.7083V13.609C16.1575 13.2962 16.2772 12.9962 16.4903 12.775C16.7034 12.5538 16.9925 12.4295 17.2938 12.4295C17.5952 12.4295 17.8842 12.5538 18.0973 12.775C18.3104 12.9962 18.4301 13.2962 18.4301 13.609V19.3382C18.4301 19.4723 18.4814 19.6008 18.5727 19.6956C18.6641 19.7904 18.7879 19.8437 18.9171 19.8437C19.0462 19.8437 19.1701 19.7904 19.2614 19.6956C19.3528 19.6008 19.4041 19.4723 19.4041 19.3382V18.3272C19.4041 18.0143 19.5238 17.7143 19.7369 17.4931C19.95 17.2719 20.239 17.1476 20.5403 17.1476C20.8417 17.1476 21.1307 17.2719 21.3438 17.4931C21.5569 17.7143 21.6766 18.0143 21.6766 18.3272V20.0122C21.6766 20.1463 21.7279 20.2749 21.8193 20.3697C21.9106 20.4645 22.0345 20.5177 22.1636 20.5177C22.2928 20.5177 22.4166 20.4645 22.508 20.3697C22.5993 20.2749 22.6506 20.1463 22.6506 20.0122V19.6752C22.6506 19.3624 22.7703 19.0623 22.9834 18.8411C23.1965 18.6199 23.4855 18.4957 23.7869 18.4957C24.0882 18.4957 24.3773 18.6199 24.5903 18.8411C24.8034 19.0623 24.9232 19.3624 24.9232 19.6752V22.7083Z" fill="black"/>
<circle cx="10.8" cy="8.4001" r="1.4" stroke="black" stroke-width="0.8"/>
<circle cx="16" cy="6.8" r="1.4" stroke="black" stroke-width="0.8"/>
<circle cx="21.2004" cy="8.4001" r="1.4" stroke="black" stroke-width="0.8"/>
</svg>
