<svg width="35" height="35" viewBox="0 0 35 35" fill="none" xmlns="http://www.w3.org/2000/svg">
<circle cx="17.5" cy="17.5" r="17.5" fill="#F8F8F8"/>
<path d="M15.125 13.8752C15.125 13.5469 15.2113 13.2243 15.3752 12.9397C15.5391 12.6552 15.7748 12.4187 16.0588 12.2538C16.3428 12.089 16.6651 12.0017 16.9934 12.0005C17.3218 11.9993 17.6447 12.0844 17.9298 12.2473C18.215 12.4101 18.4523 12.645 18.6182 12.9284C18.7841 13.2118 18.8726 13.5337 18.875 13.8621C18.8773 14.1904 18.7934 14.5137 18.6316 14.7994C18.4698 15.0851 18.2358 15.3233 17.953 15.4902C17.478 15.7712 17 16.1982 17 16.7502V18.0002" stroke="black" stroke-linecap="round"/>
<path d="M17 22C17.5523 22 18 21.5523 18 21C18 20.4477 17.5523 20 17 20C16.4477 20 16 20.4477 16 21C16 21.5523 16.4477 22 17 22Z" fill="black"/>
<path d="M12 8.33801C13.5195 7.45891 15.2445 6.99731 17 7.00001C22.523 7.00001 27 11.477 27 17C27 22.523 22.523 27 17 27C11.477 27 7 22.523 7 17C7 15.179 7.487 13.47 8.338 12" stroke="black" stroke-linecap="round"/>
</svg>
