<svg width="25" height="25" viewBox="0 0 25 25" fill="none" xmlns="http://www.w3.org/2000/svg">
<path d="M20.0312 15.8957L17.3853 15.5936C17.0742 15.5571 16.7589 15.5915 16.463 15.6943C16.1671 15.7972 15.8984 15.9657 15.677 16.1873L13.7603 18.104C10.8032 16.6001 8.39969 14.1965 6.89575 11.2394L8.82284 9.31234C9.27075 8.86442 9.4895 8.23942 9.41659 7.60401L9.1145 4.97901C9.05545 4.47086 8.81158 4.00217 8.42933 3.66218C8.04709 3.32219 7.55316 3.13465 7.04159 3.13526H5.2395C4.06242 3.13526 3.08325 4.11442 3.15617 5.29151C3.70825 14.1873 10.8228 21.2915 19.7083 21.8436C20.8853 21.9165 21.8645 20.9373 21.8645 19.7603V17.9582C21.8749 16.9061 21.0833 16.0207 20.0312 15.8957Z" fill="white"/>
</svg>
