<svg width="35" height="35" viewBox="0 0 35 35" fill="none" xmlns="http://www.w3.org/2000/svg">
<circle cx="17.5" cy="17.5" r="17.5" fill="#F8F8F8"/>
<g clip-path="url(#clip0_818_10028)">
<path d="M13.5191 22.5562C12.4103 22.5562 11.5115 23.491 11.5115 24.6441C11.5115 25.7973 12.4104 26.7321 13.5191 26.7321C14.628 26.7321 15.5268 25.7972 15.5268 24.6441C15.5268 23.491 14.628 22.5562 13.5191 22.5562ZM13.5191 25.8041C12.9031 25.8041 12.4038 25.2848 12.4038 24.6442C12.4038 24.0035 12.9031 23.4842 13.5191 23.4842C14.1351 23.4842 14.6345 24.0035 14.6345 24.6442C14.6345 25.2848 14.1351 25.8041 13.5191 25.8041Z" fill="black"/>
<path d="M21.9959 22.5562C20.8871 22.5562 19.9883 23.491 19.9883 24.6441C19.9883 25.7973 20.8872 26.7321 21.9959 26.7321C23.1047 26.7321 24.0036 25.7972 24.0036 24.6441C24.0036 23.491 23.1048 22.5562 21.9959 22.5562ZM21.9959 25.8041C21.3799 25.8041 20.8806 25.2848 20.8806 24.6442C20.8806 24.0035 21.3799 23.4842 21.9959 23.4842C22.6119 23.4842 23.1113 24.0035 23.1113 24.6442C23.1113 25.2848 22.6119 25.8041 21.9959 25.8041Z" fill="black"/>
<path d="M26.5244 10.3764C26.4315 10.2708 26.3043 10.2048 26.1675 10.1908L11.6453 9.98198L11.2437 8.70597C10.9609 7.85298 10.1928 7.27713 9.32527 7.26758H7.83067C7.58426 7.26758 7.38452 7.47531 7.38452 7.73158C7.38452 7.98784 7.58426 8.19557 7.83067 8.19557H9.32527C9.81036 8.20672 10.2375 8.53066 10.3961 9.00758L13.2291 17.8931L13.0061 18.4267C12.7573 19.0939 12.832 19.8449 13.2068 20.4451C13.5781 21.0345 14.2027 21.3983 14.8799 21.4195H23.5575C23.8039 21.4195 24.0037 21.2117 24.0037 20.9555C24.0037 20.6992 23.8039 20.4915 23.5575 20.4915H14.8799C14.4974 20.4815 14.1454 20.2723 13.9429 19.9347C13.7428 19.6012 13.7016 19.1903 13.8314 18.8211L14.0099 18.4035L23.4013 17.3827C24.4329 17.2645 25.2815 16.4842 25.5206 15.4339L26.5914 10.7707C26.6396 10.6364 26.614 10.4854 26.5244 10.3764ZM24.6506 15.2251C24.5057 15.9012 23.9538 16.4 23.2898 16.4547L14.0099 17.4523L11.9353 10.91L25.6098 11.1188L24.6506 15.2251Z" fill="black"/>
</g>
<defs>
<clipPath id="clip0_818_10028">
<rect width="20" height="20" fill="white" transform="translate(7 7)"/>
</clipPath>
</defs>
</svg>
