<svg width="35" height="35" viewBox="0 0 35 35" fill="none" xmlns="http://www.w3.org/2000/svg">
<circle cx="17.5" cy="17.5" r="17.5" fill="#F8F8F8"/>
<path d="M13.3184 25.0001C13.873 25.0001 14.4048 24.7732 14.7969 24.3692C15.1891 23.9653 15.4094 23.4175 15.4094 22.8462C15.4094 22.275 15.1891 21.7272 14.7969 21.3232C14.4048 20.9193 13.873 20.6924 13.3184 20.6924C12.7639 20.6924 12.2321 20.9193 11.84 21.3232C11.4478 21.7272 11.2275 22.275 11.2275 22.8462C11.2275 23.4175 11.4478 23.9653 11.84 24.3692C12.2321 24.7732 12.7639 25.0001 13.3184 25.0001ZM23.773 25.0001C24.3275 25.0001 24.8594 24.7732 25.2515 24.3692C25.6436 23.9653 25.8639 23.4175 25.8639 22.8462C25.8639 22.275 25.6436 21.7272 25.2515 21.3232C24.8594 20.9193 24.3275 20.6924 23.773 20.6924C23.2185 20.6924 22.6866 20.9193 22.2945 21.3232C21.9024 21.7272 21.6821 22.275 21.6821 22.8462C21.6821 23.4175 21.9024 23.9653 22.2945 24.3692C22.6866 24.7732 23.2185 25.0001 23.773 25.0001Z" stroke="black" stroke-miterlimit="1.5" stroke-linecap="round" stroke-linejoin="round"/>
<path d="M15.4614 22.8462H20.6364V11.6462C20.6364 11.4748 20.5703 11.3104 20.4526 11.1893C20.335 11.0681 20.1755 11 20.0091 11H6M10.8614 22.8462H8.71818C8.63581 22.8462 8.55424 22.8294 8.47814 22.797C8.40203 22.7645 8.33288 22.7169 8.27463 22.6569C8.21639 22.5969 8.17018 22.5257 8.13866 22.4473C8.10713 22.3689 8.09091 22.2849 8.09091 22.2V16.9231" stroke="black" stroke-linecap="round"/>
<path d="M7.0459 14.231H11.2277" stroke="black" stroke-linecap="round" stroke-linejoin="round"/>
<path d="M20.6367 14.231H26.5017C26.623 14.231 26.7416 14.2672 26.8433 14.3353C26.945 14.4033 27.0253 14.5002 27.0746 14.6143L28.946 18.9522C28.9816 19.0346 29.0002 19.1237 29.0004 19.2139V22.2002C29.0004 22.285 28.9841 22.3691 28.9526 22.4475C28.9211 22.5259 28.8749 22.5971 28.8166 22.6571C28.7584 22.7171 28.6892 22.7647 28.6131 22.7972C28.537 22.8296 28.4555 22.8463 28.3731 22.8463H26.3867M20.6367 22.8463H21.6822" stroke="black" stroke-linecap="round"/>
</svg>
