<svg width="36" height="50" viewBox="0 0 36 50" fill="none" xmlns="http://www.w3.org/2000/svg">
<path d="M31.3123 24.9693C30.4179 24.9684 29.5439 25.2321 28.8047 25.7259C28.6518 25.0355 28.3308 24.3916 27.8692 23.8491C27.4076 23.3066 26.8191 22.8816 26.1537 22.6103C25.4884 22.3391 24.766 22.2295 24.0481 22.2911C23.3303 22.3527 22.6383 22.5836 22.0311 22.9641V17.218C22.0311 16.0561 21.5603 14.9417 20.7222 14.1201C19.8842 13.2985 18.7475 12.8369 17.5623 12.8369C16.3772 12.8369 15.2405 13.2985 14.4025 14.1201C13.5644 14.9417 13.0936 16.0561 13.0936 17.218V31.878L11.7994 29.8391C11.2052 28.8335 10.2279 28.1006 9.0825 27.8015C7.93711 27.5024 6.71744 27.6616 5.69179 28.2442C4.66615 28.8267 3.91856 29.7848 3.61348 30.9078C3.30839 32.0307 3.47081 33.2265 4.065 34.232L4.86765 35.6221C10.7114 45.7324 13.1297 49.9063 20.9998 49.9063C24.9187 49.9019 28.6757 48.3736 31.4467 45.6569C34.2178 42.9402 35.7765 39.2569 35.7811 35.4149V29.3504C35.7811 28.7751 35.6655 28.2054 35.4409 27.6738C35.2164 27.1423 34.8872 26.6593 34.4722 26.2525C34.0573 25.8456 33.5646 25.5229 33.0225 25.3028C32.4803 25.0826 31.8992 24.9693 31.3123 24.9693ZM33.7186 35.4166C33.7145 38.7224 32.3732 41.8917 29.9888 44.2293C27.6045 46.5669 24.3718 47.8819 20.9998 47.8859C14.3311 47.8859 12.4061 44.5445 6.66203 34.6263L5.85594 33.226C5.53688 32.6845 5.45017 32.041 5.61486 31.4369C5.77955 30.8327 6.18216 30.3174 6.73422 30.0042C7.09953 29.7959 7.51475 29.6866 7.93734 29.6874C8.36047 29.6866 8.77633 29.7953 9.14297 30.0024C9.5096 30.2095 9.81406 30.5077 10.0256 30.8669L10.0428 30.8956L13.2534 35.9507C13.3726 36.1354 13.5496 36.2772 13.7579 36.3549C13.9661 36.4327 14.1945 36.4422 14.4088 36.3821C14.623 36.3219 14.8116 36.1953 14.9464 36.0213C15.0811 35.8472 15.1547 35.6351 15.1561 35.4166V17.218C15.1561 16.5924 15.4096 15.9923 15.8609 15.5499C16.3121 15.1075 16.9242 14.859 17.5623 14.859C18.2005 14.859 18.8126 15.1075 19.2638 15.5499C19.7151 15.9923 19.9686 16.5924 19.9686 17.218V28.6764C19.9686 28.9445 20.0772 29.2017 20.2706 29.3913C20.464 29.5809 20.7263 29.6874 20.9998 29.6874C21.2733 29.6874 21.5357 29.5809 21.729 29.3913C21.9224 29.2017 22.0311 28.9445 22.0311 28.6764V26.6543C22.0311 26.0287 22.2846 25.4286 22.7359 24.9862C23.1871 24.5438 23.7992 24.2952 24.4373 24.2952C25.0755 24.2952 25.6876 24.5438 26.1388 24.9862C26.5901 25.4286 26.8436 26.0287 26.8436 26.6543V30.0244C26.8436 30.2926 26.9522 30.5497 27.1456 30.7393C27.339 30.9289 27.6013 31.0354 27.8748 31.0354C28.1483 31.0354 28.4107 30.9289 28.604 30.7393C28.7974 30.5497 28.9061 30.2926 28.9061 30.0244V29.3504C28.9061 28.7247 29.1596 28.1247 29.6109 27.6823C30.0621 27.2399 30.6742 26.9913 31.3123 26.9913C31.9505 26.9913 32.5626 27.2399 33.0138 27.6823C33.4651 28.1247 33.7186 28.7247 33.7186 29.3504V35.4166Z" fill="black"/>
<circle cx="4.5" cy="8.5" r="3.5" stroke="black" stroke-width="2"/>
<circle cx="17.5" cy="4.5" r="3.5" stroke="black" stroke-width="2"/>
<circle cx="30.5" cy="8.5" r="3.5" stroke="black" stroke-width="2"/>
</svg>
