<svg width="50" height="50" viewBox="0 0 50 50" fill="none" xmlns="http://www.w3.org/2000/svg">
<circle cx="25" cy="25" r="21" stroke="black" stroke-width="2"/>
<path d="M25.0293 35.5C24.6988 35.5 24.4215 35.388 24.1975 35.164C23.9735 34.94 23.8619 34.6631 23.8627 34.3333V32.9917C22.9877 32.7972 22.2196 32.457 21.5585 31.9708C20.8974 31.4847 20.3627 30.8042 19.9543 29.9292C19.8182 29.6569 19.8136 29.37 19.9403 29.0682C20.0671 28.7664 20.2954 28.5478 20.6252 28.4125C20.8974 28.2958 21.1793 28.3009 21.471 28.4277C21.7627 28.5544 21.9863 28.7633 22.1418 29.0542C22.4724 29.6375 22.8905 30.0797 23.396 30.3807C23.9016 30.6817 24.5238 30.8326 25.2627 30.8333C26.0599 30.8333 26.7354 30.6533 27.2892 30.2932C27.843 29.9331 28.1202 29.3742 28.121 28.6167C28.121 27.9361 27.9071 27.3967 27.4793 26.9985C27.0516 26.6003 26.0599 26.148 24.5043 25.6417C22.8321 25.1167 21.6849 24.4894 21.0627 23.7598C20.4405 23.0303 20.1293 22.1409 20.1293 21.0917C20.1293 19.8278 20.5377 18.8458 21.3543 18.1458C22.171 17.4458 23.0071 17.0472 23.8627 16.95V15.6667C23.8627 15.3361 23.9747 15.0588 24.1987 14.8348C24.4227 14.6108 24.6992 14.4992 25.0282 14.5C25.3587 14.5 25.636 14.612 25.86 14.836C26.084 15.06 26.1956 15.3369 26.1948 15.6667V16.95C26.9337 17.0667 27.5754 17.3051 28.1198 17.6652C28.6643 18.0253 29.1115 18.4674 29.4615 18.9917C29.6365 19.2444 29.6707 19.5264 29.5642 19.8375C29.4576 20.1486 29.2387 20.3722 28.9073 20.5083C28.6351 20.625 28.3532 20.6301 28.0615 20.5235C27.7698 20.4169 27.4976 20.2272 27.2448 19.9542C26.9921 19.6819 26.6953 19.4731 26.3547 19.3277C26.014 19.1822 25.5913 19.1091 25.0865 19.1083C24.231 19.1083 23.5796 19.2981 23.1323 19.6777C22.6851 20.0572 22.4619 20.5286 22.4627 21.0917C22.4627 21.7333 22.7543 22.2389 23.3377 22.6083C23.921 22.9778 24.9321 23.3667 26.371 23.775C27.7127 24.1639 28.7288 24.7814 29.4195 25.6277C30.1102 26.4739 30.4551 27.4508 30.4543 28.5583C30.4543 29.9389 30.046 30.9889 29.2293 31.7083C28.4127 32.4278 27.4016 32.875 26.196 33.05V34.3333C26.196 34.6639 26.084 34.9412 25.86 35.1652C25.636 35.3892 25.3591 35.5008 25.0293 35.5Z" fill="black"/>
</svg>
