<svg width="50" height="50" viewBox="0 0 50 50" fill="none" xmlns="http://www.w3.org/2000/svg">
<path d="M6.44243 28.63L5.83823 29.4268L6.44243 28.63C4.03831 26.8071 4.03831 23.1929 6.44243 21.37L6.84649 21.0636C8.73416 19.6323 9.70276 17.2939 9.38008 14.947L9.31101 14.4446C8.90004 11.4557 11.4557 8.90004 14.4446 9.31101L14.947 9.38008C17.2939 9.70276 19.6323 8.73416 21.0636 6.84649L21.37 6.44243L20.5732 5.83823L21.37 6.44243C23.1929 4.03831 26.8071 4.03831 28.63 6.44243L28.9364 6.84649C30.3677 8.73416 32.7061 9.70276 35.053 9.38008L35.5554 9.31101C38.5443 8.90004 41.1 11.4557 40.689 14.4446L40.6199 14.947C40.2972 17.2939 41.2658 19.6323 43.1535 21.0636L43.5576 21.37C45.9617 23.1929 45.9617 26.8071 43.5576 28.63L43.1535 28.9364C41.2658 30.3677 40.2972 32.7061 40.6199 35.053L40.689 35.5554C41.1 38.5443 38.5443 41.1 35.5554 40.689L35.053 40.6199C32.7061 40.2972 30.3677 41.2658 28.9364 43.1535L28.63 43.5576C26.8071 45.9617 23.1929 45.9617 21.37 43.5576L21.0636 43.1535C19.6323 41.2658 17.2939 40.2972 14.947 40.6199L14.4446 40.689C11.4557 41.1 8.90004 38.5443 9.31101 35.5554L9.38008 35.053C9.70276 32.7061 8.73416 30.3677 6.84649 28.9364L6.44243 28.63Z" stroke="black" stroke-width="2"/>
<path d="M20 26.1665L23.0952 29.1665L30.8333 21.6665" stroke="black" stroke-width="2" stroke-linecap="round"/>
</svg>
