<svg width="14" height="15" viewBox="0 0 14 15" fill="none" xmlns="http://www.w3.org/2000/svg">
<g clip-path="url(#clip0_876_11022)">
<path d="M12.8257 2.37918H9.92145V1.69291C9.92145 1.29248 9.76118 0.90846 9.47588 0.625317C9.19059 0.342174 8.80364 0.183105 8.40018 0.183105H5.08103C4.67756 0.183105 4.29062 0.342174 4.00532 0.625317C3.72003 0.90846 3.55975 1.29248 3.55975 1.69291V2.37918H0.655494C0.545458 2.37918 0.439928 2.42257 0.36212 2.49979C0.284312 2.57701 0.240601 2.68174 0.240601 2.79095C0.240601 2.90016 0.284312 3.00489 0.36212 3.08211C0.439928 3.15933 0.545458 3.20271 0.655494 3.20271H1.34698V13.2223C1.34698 13.4771 1.44898 13.7215 1.63053 13.9017C1.81208 14.0819 2.05832 14.1831 2.31507 14.1831H11.1661C11.4229 14.1831 11.6691 14.0819 11.8507 13.9017C12.0322 13.7215 12.1342 13.4771 12.1342 13.2223V3.20271H12.8257C12.9357 3.20271 13.0413 3.15933 13.1191 3.08211C13.1969 3.00489 13.2406 2.90016 13.2406 2.79095C13.2406 2.68174 13.1969 2.57701 13.1191 2.49979C13.0413 2.42257 12.9357 2.37918 12.8257 2.37918ZM4.38954 1.69291C4.38954 1.5109 4.46239 1.33634 4.59207 1.20764C4.72175 1.07894 4.89763 1.00663 5.08103 1.00663H8.40018C8.58357 1.00663 8.75945 1.07894 8.88913 1.20764C9.01881 1.33634 9.09166 1.5109 9.09166 1.69291V2.37918H4.38954V1.69291ZM11.3044 13.2223C11.3044 13.2587 11.2899 13.2936 11.2639 13.3194C11.238 13.3451 11.2028 13.3596 11.1661 13.3596H2.31507C2.27839 13.3596 2.24321 13.3451 2.21728 13.3194C2.19134 13.2936 2.17677 13.2587 2.17677 13.2223V3.20271H11.3044V13.2223ZM5.49592 6.08507V10.4772C5.49592 10.5864 5.45221 10.6912 5.3744 10.7684C5.29659 10.8456 5.19106 10.889 5.08103 10.889C4.97099 10.889 4.86546 10.8456 4.78765 10.7684C4.70984 10.6912 4.66613 10.5864 4.66613 10.4772V6.08507C4.66613 5.97586 4.70984 5.87113 4.78765 5.79391C4.86546 5.71668 4.97099 5.6733 5.08103 5.6733C5.19106 5.6733 5.29659 5.71668 5.3744 5.79391C5.45221 5.87113 5.49592 5.97586 5.49592 6.08507ZM8.81507 6.08507V10.4772C8.81507 10.5864 8.77136 10.6912 8.69355 10.7684C8.61574 10.8456 8.51021 10.889 8.40018 10.889C8.29014 10.889 8.18461 10.8456 8.1068 10.7684C8.02899 10.6912 7.98528 10.5864 7.98528 10.4772V6.08507C7.98528 5.97586 8.02899 5.87113 8.1068 5.79391C8.18461 5.71668 8.29014 5.6733 8.40018 5.6733C8.51021 5.6733 8.61574 5.71668 8.69355 5.79391C8.77136 5.87113 8.81507 5.97586 8.81507 6.08507Z" fill="#4F4F4F"/>
</g>
<defs>
<clipPath id="clip0_876_11022">
<rect width="14" height="15" fill="white"/>
</clipPath>
</defs>
</svg>
